<svg id="Capa_1" data-name="Capa 1" xmlns="http://www.w3.org/2000/svg" viewBox="0 0 311.54 311.54"><defs><style>.cls-1{fill:#d9d9d9;}</style></defs><path class="cls-1" d="M156.27,9.67a145.67,145.67,0,0,0-112.65,238c3.18-25.49,28.64-47.05,64.34-57.26C121,202.6,137.85,210,156.27,210a70.56,70.56,0,0,0,47.41-18.64c36,11.1,60.92,33.92,61.74,60.44A145.64,145.64,0,0,0,156.27,9.67Zm0,183.05a52,52,0,0,1-25.85-7c-18.75-10.67-31.66-32.5-31.66-57.71,0-35.67,25.8-64.69,57.51-64.69s57.5,29,57.5,64.69c0,25.6-13.31,47.7-32.53,58.18A51.9,51.9,0,0,1,156.27,192.72Z"/><path class="cls-1" d="M155.77,309.63c-84.84,0-153.86-69-153.86-153.86S70.93,1.91,155.77,1.91s153.86,69,153.86,153.86S240.61,309.63,155.77,309.63Zm0-304.75C72.57,4.88,4.88,72.57,4.88,155.77S72.57,306.66,155.77,306.66,306.66,239,306.66,155.77,239,4.88,155.77,4.88Z"/></svg>