<svg xmlns="http://www.w3.org/2000/svg" width="135" height="147.54" viewBox="0 0 135 147.54"><defs><style>.cls-1{fill:#737373;}</style></defs><g id="Layer_2" data-name="Layer 2"><g id="Layer_1-2" data-name="Layer 1"><path class="cls-1" d="M59,12.33c-1.42-.15-2.68-.22-3.91-.42a5.88,5.88,0,0,1-5.14-6.36A6,6,0,0,1,55.76.06C60.88,0,66,0,71.12,0,73.76,0,76.39,0,79,0A6.08,6.08,0,0,1,84.94,5,5.81,5.81,0,0,1,81,11.63a29.78,29.78,0,0,1-5,.77c0,2.12-.06,4.3.06,6.48,0,.34.8.85,1.28.92a68.51,68.51,0,0,1,19.9,5.88,64.07,64.07,0,0,1,14.42,9.14c.77.65,1.27.68,1.93-.07,1.2-1.35,2.46-2.64,3.9-4.17a15.79,15.79,0,0,1-1.37-1.14,3.52,3.52,0,0,1-.27-5.08,3.86,3.86,0,0,1,5.27-.23c1.82,1.62,3.55,3.34,5.32,5,1.41,1.34,2.84,2.67,4.23,4a3.56,3.56,0,0,1,.46,5,3.81,3.81,0,0,1-5.26.48c-1-.85-1.49-.67-2.25.16a37.56,37.56,0,0,1-3.14,3c-.7.6-.6,1-.1,1.66,2.11,2.91,4.31,5.78,6.14,8.87a59,59,0,0,1,8.21,25.13,60.28,60.28,0,0,1-2.68,24.5,63.28,63.28,0,0,1-9.52,18.47,64.12,64.12,0,0,1-21.06,18.35,71.12,71.12,0,0,1-19.83,7.35,72.91,72.91,0,0,1-23.35.78,66.43,66.43,0,0,1-23.51-7.38c-14.9-8-25.61-19.84-31.35-35.9A60.19,60.19,0,0,1,.15,87.31C-1.89,57.47,17.78,33,42,23.88a67.21,67.21,0,0,1,15.75-4.06c.88-.1,1.29-.4,1.26-1.37C58.93,16.42,59,14.38,59,12.33Zm46.17,111.2-1.73-1.64c-2.85-2.73-2.81-3.33.22-5.84a2,2,0,0,1,3,.08l3.16,3c.74-.82,1.41-1.52,2-2.25a52.79,52.79,0,0,0,12-28.18c.27-2.39.28-2.43-2.17-2.38-4.25.1-4.21-.14-4.16-4a1.91,1.91,0,0,1,2.18-2.13c1.35,0,2.71,0,4,0,1.37-7.75-7.85-28.73-14.2-32.5-.52.48-1,1-1.57,1.48-2.79,2.7-3.06,2.69-5.8-.15-1.14-1.18-1.16-1.94,0-3.09.92-.93,1.88-1.81,2.9-2.78-.69-.58-1.25-1.11-1.87-1.58A57.93,57.93,0,0,0,73.88,29.8c-3.18-.37-3.18-.34-3.18,2.92,0,.29,0,.58,0,.87,0,1.24-.62,2.08-1.79,2-1.58-.06-3.52.87-4.56-1.23a2.9,2.9,0,0,1-.11-1.15,17.16,17.16,0,0,0-.06-2.78,1.38,1.38,0,0,0-1-.86A57,57,0,0,0,39.8,36.36c-3.44,1.92-6.66,4.25-10.15,6.5C31,44.14,32,45.06,33,46a1.78,1.78,0,0,1,0,2.81c-.48.49-1,.94-1.47,1.43a2.05,2.05,0,0,1-3.29,0l-2.95-2.81c-8.48,9.28-13.37,20-14.26,32.4.25.14.33.23.42.23l3.8,0c1.64,0,2.26.66,2.33,2.31,0,.59,0,1.18,0,1.76a1.9,1.9,0,0,1-2.2,2.11c-1.39,0-2.79,0-4.36,0,.76,12.81,5.77,23.48,14.15,32.84.73-.67,1.29-1.2,1.86-1.74,2.88-2.72,3.07-2.71,5.84.1,1.09,1.1,1.1,2,0,3.13s-1.95,1.86-2.9,2.77c.07.18.08.3.14.35a57.26,57.26,0,0,0,33.29,13.33c.28,0,.75-.45.87-.79a3.9,3.9,0,0,0,0-1.45c-.18-4.3.52-4.11,4.36-4.05l.29,0a1.77,1.77,0,0,1,1.8,1.9c0,1.08.06,2.15,0,3.22S71,137.19,72,137.1a59.28,59.28,0,0,0,20.49-5.39A55.33,55.33,0,0,0,105.15,123.53Z"/><path class="cls-1" d="M89.92,80.12c1.84,0,3.55-.06,5.24,0a2.39,2.39,0,0,1,1.38.87c1.93,2.24,3.82,4.52,6,7.11V80.25h6.18v18c-1.69,0-3.38.06-5.07,0-.42,0-.9-.5-1.22-.88-2-2.35-4-4.73-6.3-7.5v8.35H89.92Z"/><path class="cls-1" d="M88.15,89.24c-.13,4.47-3.1,8-7.87,9.2A10.19,10.19,0,0,1,67.4,90.09a8.19,8.19,0,0,1,1.87-6.42,10.43,10.43,0,0,1,10.44-3.79,9.46,9.46,0,0,1,7.93,6.51A19.08,19.08,0,0,1,88.15,89.24Zm-6.44,0a4,4,0,1,0-3.95,4.17A4,4,0,0,0,81.71,89.22Z"/><path class="cls-1" d="M65.89,89.17c-.11,4.5-3,8-7.8,9.25a10.18,10.18,0,0,1-12.93-8.26,8.22,8.22,0,0,1,1.91-6.55,10.4,10.4,0,0,1,10.32-3.74,9.48,9.48,0,0,1,8,6.45A16.86,16.86,0,0,1,65.89,89.17ZM55.39,85.1a4,4,0,0,0-3.93,4.2,4.05,4.05,0,0,0,4.07,4.09,4,4,0,0,0,3.92-4.2A4,4,0,0,0,55.39,85.1Z"/><path class="cls-1" d="M43.42,82.51l-2.66,3.6c-2.11-.47-4-1-5.93-1.27-.43-.08-.95.4-1.43.63.41.34.78.85,1.26,1,1.39.41,2.85.61,4.25,1,3.63,1.06,5.19,2.71,5.12,5.28-.08,2.81-1.94,4.75-5.41,5.64-4.1,1-9.78-.18-12.66-2.84l3-3.5c2,.62,3.75,1.18,5.54,1.72a1.75,1.75,0,0,0,.86.12c.71-.18,1.4-.44,2.09-.67A6.64,6.64,0,0,0,35.78,92c-1.42-.46-2.94-.65-4.37-1.09-3.13-1-4.55-2.61-4.52-5,0-2.61,1.67-4.6,4.58-5.56C35.1,79.16,40.88,80.18,43.42,82.51Z"/><path class="cls-1" d="M64,68.36c.85-1.3,1.63-2.36,2.26-3.5a2.26,2.26,0,0,1,2.33-1.3c3.41.07,3.41,0,3.41,3.36V77.1H67.28V70.53L64,75.24l-3.22-4.62v6.47H56V74c0-3,0-6,0-8.93,0-1,.26-1.34,1.36-1.48,2.67-.35,4.48.48,5.5,3A11.45,11.45,0,0,0,64,68.36Z"/><path class="cls-1" d="M89.8,69.64V63.71h4.55V77.19c-1.21,0-2.37.07-3.52,0a2.07,2.07,0,0,1-1.14-.73c-1.51-1.71-3-3.45-4.72-5.5v6.14H80.28V63.7c2.28-.15,4.56-.7,6.12,1.89A34.12,34.12,0,0,0,89.8,69.64Z"/><path class="cls-1" d="M46.86,77.49c-4.39,0-7.68-3-7.68-7.07A7.5,7.5,0,0,1,47,63.19c4.41,0,7.74,3.13,7.72,7.23S51.36,77.51,46.86,77.49Zm0-4a2.94,2.94,0,0,0,3.06-3A3.07,3.07,0,0,0,47,67.26a3.1,3.1,0,0,0-.12,6.2Z"/><path class="cls-1" d="M109.63,65.32l-2.58,3c-.67-.31-1.25-.64-1.88-.87a3.23,3.23,0,0,0-3.75.83,3.33,3.33,0,0,0-.51,3.82A3.24,3.24,0,0,0,104.1,74c1.26,0,1.85-.46,1.39-1.86l-2.17-.21V69.46h6.81c0,1.86,0,3.75,0,5.64,0,.33-.44.74-.78.94a10,10,0,0,1-8.71.93,6.73,6.73,0,0,1-4.79-6.49,6.81,6.81,0,0,1,4.47-6.59A9.13,9.13,0,0,1,109.63,65.32Z"/><path class="cls-1" d="M38.8,66.82l-3.6,2c-2.18-1.83-3.5-2-4.71-.71a3.53,3.53,0,0,0,.17,4.66c1.27,1.13,2.83.8,4.55-1l3.56,2c-.93,2.67-4.14,4.16-7.8,3.68a7.09,7.09,0,0,1-1.14-13.79C33.49,62.48,37.05,63.69,38.8,66.82Z"/><path class="cls-1" d="M78.33,77.11c-.35,0-.63.08-.91.08-1.17,0-2.33,0-3.59,0V63.71h4.5Z"/></g></g></svg>