<svg xmlns="http://www.w3.org/2000/svg" width="238.82" height="45.46" viewBox="0 0 238.82 45.46"><defs><style>.cls-1{fill:#ff5353;}.cls-2{fill:#023e73;}</style></defs><g id="Layer_2" data-name="Layer 2"><g id="Layer_1-2" data-name="Layer 1"><path class="cls-1" d="M27.18,45.46l-.6-.54a49.66,49.66,0,0,0-11.45-7.26C8.48,34.66.08,34.6,0,34.6H0A1.62,1.62,0,0,1,1.72,33a42.2,42.2,0,0,1,14.1,3.15,50.87,50.87,0,0,1,11.28,7c1.68-1.61,6.82-6.21,12.64-8.4a31.27,31.27,0,0,1,12-2,1.56,1.56,0,0,1,1.49,1.8h0a29,29,0,0,0-12.93,1.75c-6.62,2.48-12.53,8.48-12.59,8.54Z"/><path class="cls-2" d="M15.71,35.23a51.12,51.12,0,0,1,11.28,7c1.68-1.6,6.81-6.21,12.64-8.39a31.46,31.46,0,0,1,10.82-2l-1.22-8.1S45.08,23.66,38.69,27a45.41,45.41,0,0,0-11.55,9.42,38.57,38.57,0,0,0-10.09-7.4A56.22,56.22,0,0,0,4.26,24.67L3,32.19A40.8,40.8,0,0,1,15.71,35.23Z"/><ellipse class="cls-1" cx="26.86" cy="4.93" rx="4.88" ry="4.93"/><path class="cls-1" d="M40.91,6.11a11.63,11.63,0,0,0-.34-2.78C38.28,8,32.94,11.21,26.72,11.21S15.16,8,12.87,3.33a11.63,11.63,0,0,0-.34,2.78,12.91,12.91,0,0,0,7.87,11.6,27,27,0,0,1-.86,3.49,35.84,35.84,0,0,1-2.69,6.72l2.69,1.35a10.27,10.27,0,0,1,1.35.78,21.57,21.57,0,0,1,3.59-3.14,4.65,4.65,0,0,1,4.48,0,27.4,27.4,0,0,1,3.59,3.14s.82-.62,1.66-1.17c1.09-.73,2.18-1.4,2.18-1.4A31.13,31.13,0,0,1,33.9,21.2,27,27,0,0,1,33,17.71,12.91,12.91,0,0,0,40.91,6.11Z"/><path class="cls-1" d="M57.18,28.13a8.21,8.21,0,0,1,8.59-8.26c4.63,0,8.19,3.33,8.19,8.88V30H63.25a3.33,3.33,0,0,0,3.4,2,7.16,7.16,0,0,0,3.62-1.11l2.41,3.62c-1.56,1.34-4.37,2-6.72,2C61,36.42,57.18,33.32,57.18,28.13Zm8.59-3.78a2.44,2.44,0,0,0-2.58,1.89h5.19A2.41,2.41,0,0,0,65.77,24.35Z"/><path class="cls-1" d="M85.31,36l-2.45-4.18L80.35,36H74l5.16-8.1-4.83-7.66h6.43L82.83,24,85,20.27h6.43l-4.83,7.66L91.74,36Z"/><path class="cls-1" d="M94.18,31.46v-6.1H91.57V20.27h2.61V16h5.88v4.31h3.2v5.09h-3.2v4.4a1.35,1.35,0,0,0,1.3,1.47,2.19,2.19,0,0,0,1.18-.29l1,4.44a6.3,6.3,0,0,1-4,1C96.11,36.42,94.18,34.76,94.18,31.46Z"/><path class="cls-1" d="M105.44,36V20.27h5.87V22a7,7,0,0,1,4.83-2.19v5.61a4.56,4.56,0,0,0-1.34-.16c-1.24,0-2.83.33-3.49,1.11V36Z"/><path class="cls-1" d="M127.27,36v-1.5a6.36,6.36,0,0,1-4.77,1.89,5.21,5.21,0,0,1-5.41-5.19c0-3.92,3.06-5,5.41-5,2.06,0,3.92.65,4.77,1.72V26.3c0-1.11-1-1.95-2.94-1.95A7.53,7.53,0,0,0,120,25.88l-2-3.62a12.3,12.3,0,0,1,7.44-2.39c3.91,0,7.73,1.37,7.73,6.63V36Zm0-4.28v-.88A3,3,0,0,0,125,30c-1,0-2,.33-2,1.31s1.07,1.27,2,1.27A3,3,0,0,0,127.27,31.75Z"/><path class="cls-2" d="M136,28.13c0-5,3.85-8.26,8.85-8.26,3.59,0,5.8,1.64,6.69,3l-3.79,3.56a3.07,3.07,0,0,0-2.64-1.34,2.92,2.92,0,0,0-3.1,3.07,2.94,2.94,0,0,0,3.1,3.1,3.16,3.16,0,0,0,2.64-1.37l3.79,3.59c-.89,1.31-3.1,3-6.69,3C139.86,36.42,136,33.16,136,28.13Z"/><path class="cls-2" d="M153.47,36V20.27h5.87V22a7,7,0,0,1,4.83-2.19v5.61a4.56,4.56,0,0,0-1.34-.16c-1.24,0-2.84.33-3.49,1.11V36Z"/><path class="cls-2" d="M165.11,28.13a8.21,8.21,0,0,1,8.59-8.26c4.63,0,8.19,3.33,8.19,8.88V30H171.18a3.33,3.33,0,0,0,3.4,2,7.16,7.16,0,0,0,3.62-1.11l2.42,3.62c-1.57,1.34-4.38,2-6.73,2C169,36.42,165.11,33.32,165.11,28.13Zm8.59-3.78a2.45,2.45,0,0,0-2.58,1.89h5.19A2.41,2.41,0,0,0,173.7,24.35Z"/><path class="cls-2" d="M194.22,36V34.36a5.69,5.69,0,0,1-4.44,2.06c-3.82,0-6.95-2.87-6.95-8.29,0-5.22,3.07-8.26,6.95-8.26a5.55,5.55,0,0,1,4.44,2.06V14.26h5.87V36Zm0-5.88v-4a3.39,3.39,0,0,0-2.45-1.05,2.86,2.86,0,0,0-2.93,3.07,2.88,2.88,0,0,0,2.93,3.1A3.42,3.42,0,0,0,194.22,30.15Z"/><path class="cls-2" d="M203,15.83a3.3,3.3,0,1,1,3.3,3.29A3.29,3.29,0,0,1,203,15.83Zm.36,20.2V20.27h5.88V36Z"/><path class="cls-2" d="M213.7,31.46v-6.1h-2.61V20.27h2.61V16h5.87v4.31h3.2v5.09h-3.2v4.4a1.35,1.35,0,0,0,1.31,1.47,2.14,2.14,0,0,0,1.17-.29l1,4.44a6.34,6.34,0,0,1-4,1C215.62,36.42,213.7,34.76,213.7,31.46Z"/><path class="cls-2" d="M223.61,34,226,30.06a11.3,11.3,0,0,0,5.68,2c1.21,0,1.57-.3,1.57-.69,0-1.5-8.94.43-8.94-6.17,0-2.84,2.48-5.32,7-5.32a12.37,12.37,0,0,1,6.82,2L236,25.72a7.76,7.76,0,0,0-4.63-1.64c-.85,0-1.47.27-1.47.69,0,1.3,8.94-.33,8.94,6.23,0,3.13-2.8,5.42-7.47,5.42A13.11,13.11,0,0,1,223.61,34Z"/></g></g></svg>