<svg xmlns="http://www.w3.org/2000/svg" xmlns:xlink="http://www.w3.org/1999/xlink" viewBox="0 0 210.39 166.5"><defs><style>.cls-1{fill:none;}.cls-2{fill:#fca89e;}.cls-3{fill:url(#linear-gradient);}.cls-4{fill:#fff;}.cls-5{fill:#0e97cd;}.cls-6{fill:#1958db;}.cls-7{fill:#b3e3ef;}.cls-8{fill:#025482;}.cls-9{fill:#0c5a9a;}.cls-10{fill:#03436b;}.cls-11{fill:#4396ca;}.cls-12{fill:#ff645f;}.cls-13{fill:#29266b;}.cls-14{fill:#da3f3a;}.cls-15{fill:#f7958d;}.cls-16{clip-path:url(#clip-path);}.cls-17{clip-path:url(#clip-path-2);}.cls-18{fill:#97c7d3;}.cls-19{clip-path:url(#clip-path-3);}.cls-20{fill:#d2f7ff;}.cls-21{clip-path:url(#clip-path-4);}.cls-22{clip-path:url(#clip-path-5);}.cls-23{fill:#f5abbc;}.cls-24{fill:#4e687f;}.cls-25{clip-path:url(#clip-path-7);}.cls-26{fill:#2a2873;}.cls-27{fill:#823024;}</style><linearGradient id="linear-gradient" y1="83.25" x2="210.39" y2="83.25" gradientUnits="userSpaceOnUse"><stop offset="0.01" stop-color="#e5f6fa"/><stop offset="0.35" stop-color="#fff"/><stop offset="1" stop-color="#b3e3ef"/></linearGradient><clipPath id="clip-path"><path class="cls-1" d="M69.26,92c-.66,2.22-2.52,1.88-4.74,1.22a4.19,4.19,0,1,1,2.38-8C69.12,85.82,69.91,89.76,69.26,92Z"/></clipPath><clipPath id="clip-path-2"><path class="cls-1" d="M71.07,113.28H60.55L59.24,97.69a2.38,2.38,0,0,1,2.38-2.59H70a2.38,2.38,0,0,1,2.38,2.59l-1.85,12.78Z"/></clipPath><clipPath id="clip-path-3"><path class="cls-1" d="M71.07,113.28H60.55l.9-3.12L59.24,97.69a2.38,2.38,0,0,1,2.38-2.59H70a2.38,2.38,0,0,1,2.38,2.59l-1.85,12.78Z"/></clipPath><clipPath id="clip-path-4"><path class="cls-2" d="M167.13,93.19c.63,2.11,2.39,1.78,4.5,1.16a4,4,0,0,0-2.26-7.63C167.26,87.34,166.51,91.08,167.13,93.19Z"/></clipPath><clipPath id="clip-path-5"><path class="cls-1" d="M176,113.39H166l-1.25-14.78A2.27,2.27,0,0,1,167,96.15H175a2.26,2.26,0,0,1,2.26,2.46Z"/></clipPath><clipPath id="clip-path-7"><rect class="cls-1" x="65.96" y="42.78" width="103.43" height="64.94" rx="2.92"/></clipPath></defs><g id="Layer_2" data-name="Layer 2"><g id="Layer_1-2" data-name="Layer 1"><path class="cls-3" d="M210.39,90.75c0,41.84-43.89,75.75-98,75.75S0,142.36,0,100.53C0,78.87,45.36,58.48,64.23,44.68,81.8,31.82,118.75,0,144.86,0,199,0,210.39,48.92,210.39,90.75Z"/><path class="cls-4" d="M73.76,73.16l-7.07,3.67C65,77.71,63,79.89,64,81.48l7.74,5.85.94,5.3,10.66-5.54-3.85-4-.83-8.76C78,72.57,75.42,72.29,73.76,73.16Z"/><polygon class="cls-5" points="51.23 121.48 64.67 109.03 172.26 109.03 184.13 121.48 51.23 121.48"/><path class="cls-6" d="M170.58,110.45H64.77a3.22,3.22,0,0,1-3.16-3.27V40.94a3.22,3.22,0,0,1,3.16-3.27H170.58a3.22,3.22,0,0,1,3.16,3.27v66.24A3.21,3.21,0,0,1,170.58,110.45Z"/><rect class="cls-7" x="65.96" y="42.78" width="103.43" height="64.94" rx="2.92"/><path class="cls-8" d="M118.86,39.81a1.19,1.19,0,1,1-1.18-1.19A1.18,1.18,0,0,1,118.86,39.81Z"/><path class="cls-9" d="M177.32,131.39H58a6.81,6.81,0,0,1-6.81-6.81v-3.1h132.9v3.1A6.81,6.81,0,0,1,177.32,131.39Z"/><path class="cls-10" d="M94.74,110.41a1.19,1.19,0,0,1-1.19,1.19H80.1a1.19,1.19,0,0,1-1.19-1.19h0a1.19,1.19,0,0,1,1.19-1.18H93.55a1.19,1.19,0,0,1,1.19,1.18Z"/><path class="cls-10" d="M158.42,110.41a1.19,1.19,0,0,1-1.19,1.19H143.78a1.18,1.18,0,0,1-1.18-1.19h0a1.18,1.18,0,0,1,1.18-1.18h13.45a1.18,1.18,0,0,1,1.19,1.18Z"/><polygon class="cls-11" points="102.05 119.7 106.47 115.61 129.4 115.61 133.3 119.7 102.05 119.7"/><rect class="cls-4" x="114.22" y="113.11" width="7.41" height="0.36"/><rect class="cls-4" x="60.13" y="118.43" width="8.31" height="0.36"/><rect class="cls-4" x="67.15" y="113.11" width="7.41" height="0.36"/><rect class="cls-4" x="63.99" y="115.54" width="7.41" height="0.36"/><rect class="cls-4" x="81.59" y="113.11" width="7.41" height="0.36"/><rect class="cls-4" x="77.83" y="115.54" width="7.41" height="0.36"/><rect class="cls-4" x="86.82" y="118.43" width="8.31" height="0.36"/><rect class="cls-4" x="95.63" y="113.11" width="7.41" height="0.36"/><rect class="cls-4" x="91.87" y="115.54" width="7.41" height="0.36"/><rect class="cls-4" x="73.57" y="119.02" width="8.31" height="0.36"/><rect class="cls-4" x="168.31" y="118.43" width="8.31" height="0.36"/><rect class="cls-4" x="162.17" y="113.11" width="7.41" height="0.36"/><rect class="cls-4" x="165.34" y="115.54" width="7.41" height="0.36"/><rect class="cls-4" x="147.74" y="113.11" width="7.41" height="0.36"/><rect class="cls-4" x="151.5" y="115.54" width="7.41" height="0.36"/><rect class="cls-4" x="141.61" y="118.43" width="8.31" height="0.36"/><rect class="cls-4" x="133.7" y="113.11" width="7.41" height="0.36"/><rect class="cls-4" x="137.45" y="115.54" width="7.41" height="0.36"/><rect class="cls-4" x="154.86" y="119.02" width="8.31" height="0.36"/><path class="cls-12" d="M63.53,85.59s-5.52,4.85-4.64,7,1.7,1.6,7.22,1.55c2.43,0,4.39.08,5.37-.37,1.92-.89,1.45-2.17,1-3a54.46,54.46,0,0,0-3.68-5.15Z"/><path class="cls-13" d="M57,113.32h14.1v3.38A3.32,3.32,0,0,1,67.76,120H57a3.32,3.32,0,0,1-3.31-3.32v-.07A3.31,3.31,0,0,1,57,113.32Z"/><path class="cls-14" d="M71.07,113.32H60.46l1-3.16L59.24,97.69a2.38,2.38,0,0,1,2.38-2.59H70a2.38,2.38,0,0,1,2.38,2.59l-1.85,12.78Z"/><path class="cls-15" d="M66.48,96.07H64.84a1,1,0,0,1-.92-1V93a1,1,0,0,1,.92-1h1.64a1,1,0,0,1,.91,1v2A1,1,0,0,1,66.48,96.07Z"/><path class="cls-2" d="M69.26,92c-.66,2.22-2.52,1.88-4.74,1.22a4.19,4.19,0,1,1,2.38-8C69.12,85.82,69.91,89.76,69.26,92Z"/><path class="cls-12" d="M62.5,87.49s6.08.74,7.91,0,2.34-1.94,1-3.29c-1.69-1.74-4.41-.86-6.82.81A13.8,13.8,0,0,0,62.5,87.49Z"/><g class="cls-16"><path class="cls-12" d="M64.64,87.23s0,1.48-.21,1.48a1.45,1.45,0,0,0-1.53.41c-.56.72.05,1.43.72,1.58s.2,1.89-1.38,1.59-2.15-4-1.33-5.47,3.42-3,4.34-2.91,1.38,2.3,1.38,2.3Z"/></g><path class="cls-13" d="M53.86,115.93l-1.73,19.33h2.55s4.08-12.59,4.49-16.67-2.55-3.37-2.55-3.37Z"/><path class="cls-13" d="M61.93,115.93l-1.74,19.33h2.56s4.08-12.59,4.49-16.67-2.55-3.37-2.55-3.37Z"/><polygon class="cls-14" points="59.48 96.53 55.7 103.67 60.81 103.27 59.48 96.53"/><path class="cls-14" d="M71.76,95.89l6.59,9.5a1.46,1.46,0,0,1-.61,1.91l-10.19,2.3-1.33-2.25,7.15-2.58-5.13-5.13Z"/><path class="cls-2" d="M67.38,109.05H63.19l-.3-1.84h3.16a1.2,1.2,0,0,1,1.19,1Z"/><path class="cls-12" d="M52.18,135.26h2.5v1.91H49.6c-.33,0-.45-.75-.15-.91Z"/><path class="cls-12" d="M60.19,135.26H62.7v1.91H57.62c-.33,0-.45-.75-.16-.91Z"/><g class="cls-17"><rect class="cls-11" x="65.81" y="106.15" width="6.73" height="0.22" transform="translate(-30.74 28.2) rotate(-18.94)"/><rect class="cls-11" x="66.65" y="108.81" width="7.34" height="0.22" transform="translate(-8.88 6.27) rotate(-4.8)"/></g><polygon class="cls-18" points="65.19 109.07 52.01 109.07 50.2 100.91 63.38 100.91 65.19 109.07"/><rect class="cls-18" x="52" y="109.01" width="16.42" height="1.39"/><path class="cls-2" d="M58.3,105.21a.87.87,0,1,1-.86-.87A.86.86,0,0,1,58.3,105.21Z"/><rect class="cls-7" x="48.29" y="110.13" width="25.88" height="1.42"/><rect class="cls-7" x="48.28" y="110.26" width="0.41" height="32.9"/><rect class="cls-7" x="73.76" y="110.26" width="0.41" height="32.9"/><g class="cls-19"><path class="cls-15" d="M68.91,96.11A3.1,3.1,0,1,1,65.81,93,3.1,3.1,0,0,1,68.91,96.11Z"/></g><path class="cls-20" d="M162.61,113.43H176v3.21a3.15,3.15,0,0,1-3.15,3.15H162.61a3.15,3.15,0,0,1-3.14-3.15v-.06A3.15,3.15,0,0,1,162.61,113.43Z"/><path class="cls-13" d="M176,113.39H166l-1.25-14.78A2.27,2.27,0,0,1,167,96.15H175a2.26,2.26,0,0,1,2.26,2.46Z"/><path class="cls-15" d="M171.63,97.07h-1.55a.93.93,0,0,1-.87-1V94.17a.93.93,0,0,1,.87-1h1.55a.93.93,0,0,1,.87,1v1.91A.93.93,0,0,1,171.63,97.07Z"/><path class="cls-2" d="M167.13,93.19c.63,2.11,2.39,1.78,4.5,1.16a4,4,0,0,0-2.26-7.63C167.26,87.34,166.51,91.08,167.13,93.19Z"/><g class="cls-21"><path class="cls-14" d="M171.52,88.69s0,1.4.19,1.4a1.36,1.36,0,0,1,1.45.39c.54.68,0,1.35-.68,1.5s-.19,1.79,1.31,1.5,2-3.83,1.26-5.18-3.24-2.86-4.12-2.76-8.25,2.33-8.25,2.33Z"/></g><polygon class="cls-13" points="164.99 97.5 160.25 105.65 163.94 107.21 166.87 102.39 164.99 97.5"/><path class="cls-13" d="M176.64,96.9l6.25,9a1.39,1.39,0,0,1-.58,1.82l-9.05,4.51L172,110.11l6.17-4.78-4.87-4.87Z"/><g class="cls-22"><rect class="cls-23" x="170.85" y="108.19" width="7.41" height="0.21" transform="translate(-26.05 152.5) rotate(-44.24)"/><rect class="cls-23" x="172.35" y="110.96" width="6.87" height="0.21" transform="translate(-31.49 94.58) rotate(-27.74)"/></g><rect class="cls-4" x="157.99" y="112.18" width="15.58" height="1.32"/><g class="cls-22"><path class="cls-15" d="M167.69,96.88A3.28,3.28,0,1,0,171,93.59,3.28,3.28,0,0,0,167.69,96.88Z"/></g><path class="cls-2" d="M173.43,112.22h-4l-.29-1.75h3a1.15,1.15,0,0,1,1.13,1Z"/><polygon class="cls-4" points="170.52 112.23 158.01 112.23 156.29 104.49 168.8 104.49 170.52 112.23"/><path class="cls-24" d="M164,108.57a.83.83,0,1,1-.82-.82A.82.82,0,0,1,164,108.57Z"/><path class="cls-2" d="M167.32,115.91l-1.65,18.34h2.42s3.88-11.94,4.27-15.82-2.43-3.19-2.43-3.19Z"/><g class="cls-25"><rect class="cls-13" x="86.82" y="90.05" width="65.2" height="52.3" rx="20.38"/><path class="cls-15" d="M128.42,90.31s-1.28,5.69-8.58,5.26-8.49-5.6-8.49-5.6l.26-10.2h16.3Z"/><path class="cls-2" d="M113.85,84.38c7.63,6.1,12.72,1.79,18-6.46,6.22-9.81,6.25-19.49-1.38-25.6a17.7,17.7,0,0,0-24.87,2.76C99.45,62.71,106.22,78.27,113.85,84.38Z"/><polygon class="cls-4" points="116.04 65.77 128.96 73.22 116.04 80.68 116.04 65.77"/><path class="cls-26" d="M155.73,74.47l-.36,0L157,58.54c.58-5.51.5-9.67-5.86-13l.17-.32c6.54,3.45,6.62,7.91,6.05,13.38Z"/><polygon class="cls-6" points="140.24 45.05 96.28 44.12 102.67 62.18 136.26 62.13 140.24 45.05"/><polygon class="cls-13" points="119.24 57.51 87.81 45.09 120.4 30.48 152 45.41 119.24 57.51"/><polygon class="cls-26" points="152.62 78.75 155.83 73.05 157.97 79.23 152.62 78.75"/></g><path class="cls-14" d="M177.4,85.09a3.31,3.31,0,1,1-3.3-3A3.16,3.16,0,0,1,177.4,85.09Z"/><path class="cls-2" d="M159.66,115.91,158,134.25h2.43s3.87-11.94,4.26-15.82-2.42-3.19-2.42-3.19Z"/><path class="cls-13" d="M165.67,134.25H168v1.82h-4.81c-.32,0-.43-.71-.15-.87Z"/><path class="cls-13" d="M158.12,134.25h2.38v1.82h-4.82c-.31,0-.42-.71-.15-.87Z"/><path class="cls-4" d="M144.43,120.08h-13l.35,27.83h2.48s1.89-14,2.6-21.74h1.72l1.75,10.18,7.23,7.76,1.9-1.67L144,134s.5-10.37.46-12.16A15.56,15.56,0,0,0,144.43,120.08Z"/><path class="cls-12" d="M144.43,120.08h-13l-1.63-17.3c-.14-1.41,1.22-2.62,2.95-2.62h10.38c1.73,0,3.1,1.21,2.95,2.62Z"/><path class="cls-15" d="M137.86,102c2.31,0,2.29-1.57,2.29-1.95V97.49c0-.58-.86-.53-1.37-.53h-1.66c-.51,0-1.37.47-1.37,1.05v2A2,2,0,0,0,137.86,102Z"/><path class="cls-12" d="M145,100.72s6,6.43,8.15,8.45c1.17,1.12,0,2-.67,2.79-1.86,2.33-7.88,6.48-7.88,6.48l.34-3.52,3.63-4.24s-5.11-3.94-5.28-4.23c-.46-.77-.07-4.18-.07-4.18Z"/><path class="cls-12" d="M130.81,100.72s-6,6.43-8.15,8.45c-1.17,1.12,0,2,.67,2.79,1.86,2.33,8.81,6.63,8.81,6.63l-.12-3.73-4.78-4.18s5.11-3.94,5.28-4.23c.46-.77.07-4.18.07-4.18Z"/><path class="cls-26" d="M131.72,147.88h2.53v1.94h-5.13c-.34,0-.46-.77-.16-.93Z"/><path class="cls-26" d="M147.54,144.11l1.9-1.67,1.28,1.46-3.85,3.39c-.25.22-.84-.27-.73-.59Z"/><path class="cls-2" d="M137.06,90.39c-1.63-.13-3.06,1.75-3.31,3.5s-.25,4.12.87,4.81,3.1.75,5.63-2.25C142.56,93.7,141.23,90.71,137.06,90.39Z"/><path class="cls-27" d="M135.67,88.7c1-.82,2,.5,3.07.89s3-.64,4.1.48-.22,3.12-.28,3.9.51,2.61-.17,3.69a3,3,0,0,1-3.85.73c-1.11-.53.28-2.29.51-3.24s0-2.12-1.29-1.15c-.61.45-1.68,1-1.59-.56C136.28,91.55,133.46,90.49,135.67,88.7Z"/><path class="cls-20" d="M174,114l-12.43.07a3,3,0,0,0-1.89,1.68c-.42,1.26-1.4,7.2-1.4,7.2h13.63l.91-4.48Z"/></g></g></svg>