<svg xmlns="http://www.w3.org/2000/svg" width="90" height="90.14" viewBox="0 0 90 90.14"><g id="Layer_2" data-name="Layer 2"><g id="Layer_1-2" data-name="Layer 1"><path d="M89.73,32a3.44,3.44,0,0,0-1.87-1.86l-6-2.46a3.38,3.38,0,0,0-2.63,0,3.44,3.44,0,0,0-1.86,1.87L70.51,46.29V19a1.3,1.3,0,0,0-.4-.94L52.5.39a1.34,1.34,0,0,0-1-.39H1.34A1.34,1.34,0,0,0,0,1.34V11.67a1.34,1.34,0,0,0,2.68,0v-9H50.21V19a1.34,1.34,0,0,0,1.34,1.34H67.83V52.84l-5.9,14.42a1.25,1.25,0,0,0-.1.57l.63,12.61a1.36,1.36,0,0,0,.83,1.17,1.25,1.25,0,0,0,.51.1,1.29,1.29,0,0,0,.9-.36l3.13-2.87v9H2.68V17A1.34,1.34,0,1,0,0,17V88.8a1.34,1.34,0,0,0,1.34,1.34H69.17a1.34,1.34,0,0,0,1.34-1.34V76L74,72.81a1.47,1.47,0,0,0,.33-.48L80.39,57.5a1.34,1.34,0,0,0-2.48-1l-5.56,13.6-7.44-3L76.34,39.12l7.43,3-3.94,9.63a1.34,1.34,0,0,0,2.48,1l7.43-18.18A3.38,3.38,0,0,0,89.73,32ZM52.89,4.57l13,13h-13ZM64.61,69.8l6,2.47L65,77.45ZM87.26,33.62l-2.48,6.06-7.43-3,2.48-6.06a.77.77,0,0,1,.41-.42.76.76,0,0,1,.59,0l6,2.46a.74.74,0,0,1,.42.41A.76.76,0,0,1,87.26,33.62Z"/><path d="M44.55,14.62H28a1.34,1.34,0,1,0,0,2.67h16.6a1.34,1.34,0,1,0,0-2.67Z"/><path d="M10.35,44H20.94a1.34,1.34,0,0,0,1.34-1.34V33.16l2-2.55A1.34,1.34,0,1,0,22.17,29l-1.38,1.76H10.35A1.33,1.33,0,0,0,9,32.05V42.64A1.34,1.34,0,0,0,10.35,44Zm1.34-10.59h7L16.55,36.1l-1.48-1.49a1.34,1.34,0,0,0-1.9,1.9l2.56,2.55a1.31,1.31,0,0,0,.95.4h.08a1.3,1.3,0,0,0,1-.51l1.87-2.38V41.3H11.69Z"/><path d="M58.83,32.79H30.18a1.34,1.34,0,0,0,0,2.68H58.83a1.34,1.34,0,0,0,0-2.68Z"/><path d="M30.18,41.9h23a1.34,1.34,0,0,0,0-2.68h-23a1.34,1.34,0,0,0,0,2.68Z"/><path d="M9,60.22a1.34,1.34,0,0,0,1.34,1.34H20.94a1.34,1.34,0,0,0,1.34-1.34V50.74l2-2.55a1.34,1.34,0,1,0-2.1-1.65L20.79,48.3H10.35A1.34,1.34,0,0,0,9,49.63ZM11.69,51h7l-2.14,2.72-1.48-1.5a1.34,1.34,0,0,0-1.9,1.9l2.56,2.56a1.34,1.34,0,0,0,.95.39h.08a1.37,1.37,0,0,0,1-.51l1.87-2.38v4.73H11.69Z"/><path d="M58.83,50.38H30.18a1.34,1.34,0,1,0,0,2.67H58.83a1.34,1.34,0,1,0,0-2.67Z"/><path d="M30.18,59.48h8.57a1.34,1.34,0,0,0,0-2.68H30.18a1.34,1.34,0,0,0,0,2.68Z"/><path d="M9,77.8a1.34,1.34,0,0,0,1.34,1.34H20.94a1.34,1.34,0,0,0,1.34-1.34V67.22a1.34,1.34,0,0,0-1.34-1.34H10.35A1.34,1.34,0,0,0,9,67.22Zm2.68-9.25H19.6v7.91H11.69Z"/><path d="M60.17,69.29A1.34,1.34,0,0,0,58.83,68H30.18a1.34,1.34,0,1,0,0,2.67H58.83A1.34,1.34,0,0,0,60.17,69.29Z"/><path d="M30.18,74.38a1.34,1.34,0,1,0,0,2.68H54.55a1.34,1.34,0,0,0,0-2.68Z"/></g></g></svg>