<svg xmlns="http://www.w3.org/2000/svg" viewBox="0 0 345.18 287.92"><defs><style>.cls-1{isolation:isolate;}.cls-2{fill:#eff7fa;}.cls-3,.cls-4{fill:#e7bf9c;}.cls-4{opacity:0.2;mix-blend-mode:multiply;}.cls-5{fill:#b45395;}.cls-6{fill:#b55395;}.cls-7{fill:#7197e2;}.cls-8{fill:#4770cc;}.cls-9{fill:#7cb02d;}.cls-10{fill:#a3ca64;}.cls-11{fill:#1b1b1b;}.cls-12{fill:#db9861;}.cls-13,.cls-22{fill:#fff;}.cls-14,.cls-20{fill:#dce5f5;}.cls-15{fill:#bc8f24;}.cls-16{fill:#9c791f;}.cls-17{fill:#f2ce29;}.cls-18{fill:#eaba2a;}.cls-19{fill:#b27e22;}.cls-20{opacity:0.3;}.cls-21{fill:#d3dff3;}.cls-22{font-size:7.19px;font-family:Lato-Regular, Lato;}.cls-23{letter-spacing:-0.03em;}.cls-24{letter-spacing:-0.03em;}.cls-25{letter-spacing:0em;}.cls-26{letter-spacing:-0.03em;}.cls-27{fill:#dfa577;}.cls-28{fill:#783266;}.cls-29{fill:#69a1d8;}</style></defs><g class="cls-1"><g id="Layer_2" data-name="Layer 2"><g id="Layer_1-2" data-name="Layer 1"><path class="cls-2" d="M344.72,172.51c2.07-38.22-2.52-77.37-18.21-111.61-8.95-19.51-26-43.84-47.95-52.44C265.18,3.21,250.59-.42,236,0c-23.8.74-43.74,13.54-49.44,35.4-25.4,97.52-76.18-18.71-132.74,2.7C13.79,53.28.48,99.22,0,133-.66,182.2,20.67,226.51,63.6,247.54c21.27,10.42,44.89,7.12,69.93,3.26,26.82-4.13,54.65-2.79,80.55,5.08a153.68,153.68,0,0,1,37.35,16.77c10.53,6.66,19.19,14.81,32.83,15.25,15.59.51,29.9-9.21,38.25-21.39C340.42,240.38,343.09,202.54,344.72,172.51Z"/><path class="cls-3" d="M79.21,263.07h63.32l5.25-14.14a20,20,0,0,1,10.54-11.24,50.17,50.17,0,0,0,16.74-12.56A116,116,0,0,0,192.88,198l-39.24-.19s3.53-21.95-16-51.1A16.47,16.47,0,0,1,135,136.14l1.85-21.26s13.25-14.81,5.12-33.19c0,0-7.78-10.77-10.86-6.82,0,0-23.49,55.93-25.63,64.25s-5,13.54-2.14,39.68a157.12,157.12,0,0,1,1,17.43,61.87,61.87,0,0,1-5.95,26.34Z"/><path class="cls-4" d="M138.27,226.79c-5.88-6.53-14-5.5-22.63-8.47s-11.34-24.44-11.34-24.44h0c0,.81,0,1.59,0,2.35a61.87,61.87,0,0,1-5.95,26.34l-19.16,40.5h63.32l5.25-14.14a20,20,0,0,1,10.54-11.24,49.35,49.35,0,0,0,14.06-9.75C154.94,235.27,144.15,233.32,138.27,226.79Z"/><path class="cls-5" d="M110.27,9.68c14.56,23,50.44,43.44,50.44,43.44S132.18,50.8,118,32.37l5.13-4.25s-4.08.39-7.49.79A38.6,38.6,0,0,1,110.27,9.68Z"/><path class="cls-6" d="M148.47,19.18c-2.22,1-5.49,2.53-5.49,2.53l3.15-4.53a36.8,36.8,0,0,0-11.72-6c-1.63,2.36-3.54,5-3.54,5l-.38-6a56,56,0,0,0-20.22-.46c14.56,23,50.44,43.44,50.44,43.44C160.54,36.24,155.4,25.71,148.47,19.18Z"/><path class="cls-7" d="M104.92,42.09a33.88,33.88,0,0,1,12.85-4.43c1.27,1.46,2.83,3.16,2.83,3.16l.09-3.42c16.23-.77,29.91,9.45,29.91,9.45-9.29,5.65-17.28,7.23-23.86,6.76-.42-1.19-1-3-1-3l-1.1,2.75a30.14,30.14,0,0,1-8.39-2.49c.59-1.43,1.2-3.06,1.2-3.06L114,49.73A30.79,30.79,0,0,1,104.92,42.09Z"/><path class="cls-8" d="M126.74,53.61c-.42-1.19-1-3-1-3l-1.1,2.75a30.14,30.14,0,0,1-8.39-2.49c.59-1.43,1.2-3.06,1.2-3.06L114,49.73a30.79,30.79,0,0,1-9.06-7.64c18.88-2.16,45.68,4.76,45.68,4.76C141.31,52.5,133.32,54.08,126.74,53.61Z"/><path class="cls-9" d="M264.7,39.73l-1.37,10.32,7.33-5.36,22.42-11.45-17.34,1.59s-8.84,2.14-9.32,2.58A20.92,20.92,0,0,0,264.7,39.73Z"/><polygon class="cls-10" points="257.01 33.5 293.08 33.24 264.7 39.73 257.01 33.5"/><polygon class="cls-10" points="276.29 50.11 266.84 42.52 293.08 33.24 276.29 50.11"/><path class="cls-11" d="M261,45.1a10.71,10.71,0,0,1,2.41-.63l-.07-.64a11.61,11.61,0,0,0-2.57.67Z"/><path class="cls-11" d="M238.25,102.56a40.61,40.61,0,0,0,4.18-2.43l.35.54a39,39,0,0,1-4.24,2.46Zm8-5.38a26.26,26.26,0,0,0,3.24-3.55L250,94a26.26,26.26,0,0,1-3.32,3.63ZM252,89.53c.31-.66.6-1.35.86-2s.55-1.62.77-2.46l.62.16a25.48,25.48,0,0,1-.79,2.52c-.26.72-.56,1.43-.88,2.11Zm2.6-14.08.64,0a41,41,0,0,1-.16,4.91l-.64-.06A39.69,39.69,0,0,0,254.56,75.45Zm-.92-9.66.64-.09c.27,1.89.46,3.43.6,4.85l-.64.06C254.1,69.2,253.91,67.67,253.64,65.79ZM252.92,61a23.68,23.68,0,0,1-.24-4.89l.64,0a23,23,0,0,0,.24,4.75v0l-.64.08Zm.81-9.73a11.64,11.64,0,0,1,2.8-4.11l.44.47a10.92,10.92,0,0,0-2.64,3.88Z"/><path class="cls-11" d="M231.63,106q1.25-.44,2.43-.9l-.24-.59c-.77.3-1.58.6-2.4.88Z"/><path class="cls-12" d="M228.29,37.57s13.41-9,16.47-3.06-17.42,26.84-17.42,26.84Z"/><path class="cls-12" d="M228.29,76.69s13.41-9,16.47-3.07-17.42,26.84-17.42,26.84Z"/><path class="cls-12" d="M228.29,103.33s13.41-9,16.47-3.06-17.42,26.84-17.42,26.84Z"/><path class="cls-11" d="M219,27.51H145.39a9.94,9.94,0,0,0-9.93,9.93V187.92a9.94,9.94,0,0,0,9.93,9.93H219a9.92,9.92,0,0,0,9.93-9.93V37.44A9.94,9.94,0,0,0,219,27.51Z"/><path class="cls-4" d="M142.17,154s-13.32,32.6-12,38.77,9.37,14.4,29.2,11.66A303.58,303.58,0,0,0,192.88,198s.83-44,0-46.22S156.4,133.75,155,133.75,142.17,154,142.17,154Z"/><rect class="cls-13" x="140.28" y="41.05" width="83.86" height="143.27"/><rect class="cls-14" x="156.37" y="73.73" width="51.67" height="65.05" rx="5.21"/><path class="cls-15" d="M202.08,106.7c0,.34,0,.68,0,1a7.53,7.53,0,0,1-.07.83,17.54,17.54,0,0,1-.27,1.79c-.05.28-.12.56-.18.83a18.21,18.21,0,0,1-1.19,3.27c-.13.28-.27.56-.41.83a18.53,18.53,0,0,1-1.16,1.85c-.19.28-.4.56-.62.83a15.31,15.31,0,0,1-1.63,1.79c-.3.29-.61.57-.92.83a18.79,18.79,0,0,1-2.37,1.68,14.54,14.54,0,0,1-1.56.82,17.79,17.79,0,0,1-7.65,1.71h-4.1V88.64H184a18,18,0,0,1,8.23,2,13,13,0,0,1,1.45.83,16.29,16.29,0,0,1,2.36,1.79c.3.26.59.54.87.82a18.72,18.72,0,0,1,2.46,3.14c.16.27.33.54.47.82a17.5,17.5,0,0,1,1.43,3.39c.09.27.17.55.24.83A17.3,17.3,0,0,1,202,105c0,.28,0,.55.07.83S202.08,106.4,202.08,106.7Z"/><path class="cls-16" d="M202.05,107.71a7.53,7.53,0,0,1-.07.83h-5v-.83Z"/><path class="cls-16" d="M201.71,110.33c-.05.28-.12.56-.18.83h-6.2v-.83Z"/><path class="cls-16" d="M200.34,114.43c-.13.28-.27.56-.41.83h-6.11v-.83Z"/><path class="cls-16" d="M198.77,117.11c-.19.28-.4.56-.62.83h-6.34v-.83Z"/><path class="cls-16" d="M196.52,119.73c-.3.29-.61.57-.92.83h-5.93v-.83Z"/><path class="cls-16" d="M193.23,122.24a14.54,14.54,0,0,1-1.56.82h-5.09v-.82Z"/><path class="cls-16" d="M202.06,105.78H196.6V105H202C202,105.23,202,105.5,202.06,105.78Z"/><path class="cls-16" d="M201.53,102.25H196v-.83h5.31C201.38,101.69,201.46,102,201.53,102.25Z"/><path class="cls-16" d="M199.86,98H194.3v-.82h5.09C199.55,97.48,199.72,97.75,199.86,98Z"/><path class="cls-16" d="M196.93,94.07h-6.2v-.82h5.33C196.36,93.51,196.65,93.79,196.93,94.07Z"/><path class="cls-16" d="M193.7,91.46h-6v-.83h4.55A13,13,0,0,1,193.7,91.46Z"/><path class="cls-17" d="M198,106.7a18.06,18.06,0,1,1-18.06-18.06A18.05,18.05,0,0,1,198,106.7Z"/><path class="cls-18" d="M194.91,106.7a15,15,0,1,1-15-15A15,15,0,0,1,194.91,106.7Z"/><path class="cls-19" d="M181.17,120.44A15,15,0,0,1,170,95.5a15,15,0,1,0,21.17,21.15A14.93,14.93,0,0,1,181.17,120.44Z"/><path class="cls-15" d="M184.94,110.23a.37.37,0,0,1,.29.13l.81.87a6.3,6.3,0,0,1-2.24,1.67,7.57,7.57,0,0,1-3.17.6,7.47,7.47,0,0,1-2.93-.56,6.59,6.59,0,0,1-2.26-1.58,7,7,0,0,1-1.44-2.42,9.1,9.1,0,0,1-.51-3.11,8.64,8.64,0,0,1,.53-3.11,7.32,7.32,0,0,1,1.5-2.43,6.67,6.67,0,0,1,2.32-1.57,7.62,7.62,0,0,1,3-.56,7.28,7.28,0,0,1,2.82.51,7.15,7.15,0,0,1,2.16,1.39l-.67.93a.69.69,0,0,1-.16.18.54.54,0,0,1-.27.06.8.8,0,0,1-.46-.2,6.83,6.83,0,0,0-.71-.46,6.22,6.22,0,0,0-1.1-.45,6,6,0,0,0-3.75.2,4.64,4.64,0,0,0-1.66,1.17,5.39,5.39,0,0,0-1.08,1.86,7.38,7.38,0,0,0-.39,2.48,7.17,7.17,0,0,0,.4,2.5,5.49,5.49,0,0,0,1.1,1.86,4.67,4.67,0,0,0,1.65,1.16,5.3,5.3,0,0,0,2,.4,8.77,8.77,0,0,0,1.21-.08,5,5,0,0,0,1-.25,4.12,4.12,0,0,0,.84-.42,6.2,6.2,0,0,0,.79-.61A.49.49,0,0,1,184.94,110.23Z"/><rect class="cls-13" x="164.33" y="34.75" width="35.89" height="1.8" rx="0.72"/><path class="cls-3" d="M133.8,127.71a6.23,6.23,0,0,0,1.65,2.81l1.36-15.64s9.75-10.9,7.39-25.59a22,22,0,0,0-7.14-13c-2.18-1.92-4.58-3.2-6-1.39,0,0-11,26.3-18.68,45.51Z"/><path class="cls-20" d="M186.28,191.22a4.12,4.12,0,1,1-4.12-4.12A4.11,4.11,0,0,1,186.28,191.22Z"/><path class="cls-14" d="M183.39,192.94h-2.46a.49.49,0,0,1-.49-.49V190a.49.49,0,0,1,.49-.48h2.46a.49.49,0,0,1,.49.48v2.46A.49.49,0,0,1,183.39,192.94Zm-2.46-3.3a.35.35,0,0,0-.35.35v2.46a.36.36,0,0,0,.35.36h2.46a.36.36,0,0,0,.35-.36V190a.35.35,0,0,0-.35-.35Z"/><rect class="cls-21" x="140.28" y="175.85" width="83.86" height="8.47"/><rect class="cls-21" x="140.28" y="41.05" width="83.86" height="7.6"/><path class="cls-12" d="M133.05,90.31c3-1.4,4.65-9.34,5.22-12.91-2.45-2.46-5.52-4.68-7.2-2.53,0,0-2.44,5.79-5.81,13.92C127.57,90.07,130.77,91.36,133.05,90.31Z"/><path class="cls-11" d="M97.45,225.71c6.7,4.11,28.27,16.42,50.58,19a2,2,0,0,1,1.84,2.38L146,257.58a1.74,1.74,0,0,1-1.9,1c-6.58-.8-33.7-4.88-52.78-19.64a1.72,1.72,0,0,1-.68-1.92l4-10.65A1.94,1.94,0,0,1,97.45,225.71Z"/><rect x="93.85" y="232.56" width="4.94" height="1.59" rx="0.76" transform="translate(-155.99 241.79) rotate(-69.48)"/><rect x="97.86" y="235.04" width="4.94" height="1.59" rx="0.76" transform="translate(-155.68 247.64) rotate(-69.59)"/><rect x="101.88" y="237.49" width="4.94" height="1.59" rx="0.76" transform="translate(-155.4 252.42) rotate(-69.46)"/><rect x="106.02" y="239.49" width="4.94" height="1.59" rx="0.76" transform="translate(-154.58 257.68) rotate(-69.48)"/><rect x="110.09" y="241.81" width="4.94" height="1.59" rx="0.76" transform="translate(-154.11 263) rotate(-69.48)"/><rect x="114.34" y="243.65" width="4.94" height="1.59" rx="0.76" transform="translate(-153.07 268.19) rotate(-69.49)"/><rect x="118.67" y="245.27" width="4.94" height="1.59" rx="0.76" transform="translate(-151.73 273.74) rotate(-69.58)"/><rect x="123.08" y="246.66" width="4.94" height="1.59" rx="0.76" transform="translate(-150.21 278.34) rotate(-69.49)"/><rect x="127.68" y="247.58" width="4.94" height="1.59" rx="0.76" transform="translate(-148.08 283.22) rotate(-69.48)"/><rect x="132.15" y="248.81" width="4.94" height="1.59" rx="0.76" transform="translate(-146.27 288.67) rotate(-69.58)"/><rect x="136.79" y="249.59" width="4.94" height="1.59" rx="0.76" transform="translate(-144.05 293.03) rotate(-69.48)"/><rect x="141.44" y="250.35" width="4.94" height="1.59" rx="0.76" transform="translate(-141.77 297.77) rotate(-69.45)"/><path class="cls-6" d="M110.69,249.87l0,0-.21-.06-5.28-2a1,1,0,0,1-.56-1.37l4.76-12.75a1.05,1.05,0,0,1,1.32-.67l5.28,2a1,1,0,0,1,.61.7l1.25.54a2.29,2.29,0,0,0-1.39-2.48l-5.28-2a2.33,2.33,0,0,0-2.94,1.48L103.51,246a2.33,2.33,0,0,0,1.25,3.05l5.28,2a2.21,2.21,0,0,0,2.28-.49C111.78,250.32,111.23,250.1,110.69,249.87Z"/><rect class="cls-5" x="151.22" y="146.78" width="61.98" height="11.71" rx="5.1"/><text class="cls-22" transform="translate(156.36 155.48)">CREDI<tspan class="cls-23" x="20.93" y="0">T </tspan><tspan class="cls-24" x="26.58" y="0">T</tspan><tspan class="cls-25" x="30.59" y="0">O</tspan><tspan class="cls-26" x="36.35" y="0">P</tspan><tspan x="40.46" y="0" xml:space="preserve"> U</tspan><tspan class="cls-26" x="47.59" y="0">P</tspan></text><path class="cls-13" d="M109.54,239.76l-2.3-.86a.86.86,0,0,0-.6,1.61l2.29.86Z"/><path class="cls-27" d="M210,135.41s-11.32,1-11.72,4,.48,8.31,11.17,9.34h11.08s-3.32-9.18-3.16-9.5S210,135.41,210,135.41Z"/><path class="cls-3" d="M191.78,180.31a3.07,3.07,0,0,0-1.2,4.25c5.22,9,25.94,44.72,27.81,47.62,2.14,3.33,7.37,11.17,24.71,15.21s24.48,15.68,24.48,15.68H321s-12.59-20-23.05-71.76c0,0-8.08-43-23.28-41.58,0,0-9.27-9.74-18.3-7.84,0,0-17.11-10.22-26.85-10.22L206.16,104a6.78,6.78,0,0,0-9.25-1.09,4.49,4.49,0,0,0-1.81,2.85c-.71,4.51,5.23,15.92,14.74,29.7s33,57.51,22.81,76.75a103.32,103.32,0,0,1-19.49-20.43C205.6,181.24,196.71,177.69,191.78,180.31Z"/><path class="cls-12" d="M229.64,131.68a97.18,97.18,0,0,1,8.77,8.57,101.52,101.52,0,0,1,11.15,14.65c3.47,5.72,5.76,10.74,6.84,17h-.07c-1.24-5.92-4.5-12.29-7.34-16.69a122.75,122.75,0,0,0-11-14.64c-2.48-2.87-5.64-6.26-8.38-8.89Z"/><path class="cls-12" d="M256.26,141.81A26.64,26.64,0,0,1,263,147a32.89,32.89,0,0,1,5.13,6.84,33.91,33.91,0,0,1,3.21,7.93,32.34,32.34,0,0,1,1.07,8.43h-.07a40.74,40.74,0,0,0-1.54-8.27,37.85,37.85,0,0,0-3.29-7.74,36.7,36.7,0,0,0-4.93-6.81,31.64,31.64,0,0,0-6.39-5.45Z"/><path class="cls-12" d="M274.51,149.53a23.52,23.52,0,0,1,5.59,6.7,30.59,30.59,0,0,1,3.2,8.15,25.62,25.62,0,0,1,.74,5.76H284a44.27,44.27,0,0,0-1.21-5.62,39.55,39.55,0,0,0-3.25-8,32.1,32.1,0,0,0-5-7Z"/><path class="cls-12" d="M202.57,191.37c.48-2.41-2.33-6.22-4.87-9.1a5.92,5.92,0,0,0-6.3-1.72,3.09,3.09,0,0,0-.82,4c1.41,2.42,3.93,6.76,6.9,11.89C199.71,195.31,202.13,193.6,202.57,191.37Z"/><path class="cls-12" d="M204.82,114.87c1.35-.27,7.48-2.31,7.11-3.43h0l-6.05-7.15a6.92,6.92,0,0,0-4.61-2.41h-.34a3.06,3.06,0,0,0-3.25,2.42c-.44,2.17,3.15,7.44,4.74,9.64A2.39,2.39,0,0,0,204.82,114.87Z"/><path class="cls-4" d="M267.58,263.07H321s-8.26-13.08-17-45.56c-3.81,23.91-24.86,22.53-33.21,23.86-9.62,1.53-46.95-6.26-52.18-8.71,2.33,3.55,7.84,10.87,24.4,14.73C260.45,251.43,267.58,263.07,267.58,263.07Z"/><path class="cls-4" d="M212.66,139.81c10.48,16.84,29.29,55.53,20,72.41l6.17,6.1s15.61-17.29-9.22-55.41A254.21,254.21,0,0,0,212.66,139.81Z"/><path class="cls-11" d="M85.71,130.61a10.84,10.84,0,0,0-2-1.42l.28-.58a11.16,11.16,0,0,1,2.18,1.52Z"/><path class="cls-11" d="M86.73,192.82A40.92,40.92,0,0,1,83.6,189l.52-.38a39.63,39.63,0,0,0,3.08,3.72ZM81,184.87a26.71,26.71,0,0,1-1.86-4.55l.62-.19a25.88,25.88,0,0,0,1.82,4.45Zm-2.8-9.39c-.07-.75-.11-1.51-.11-2.28a26.25,26.25,0,0,1,.14-2.64l.64.07a24.85,24.85,0,0,0-.13,2.57c0,.75,0,1.49.1,2.23Zm1.54-9.59-.62-.16a40.2,40.2,0,0,1,1.54-4.66l.6.24A40.86,40.86,0,0,0,79.74,165.89Zm3.48-9-.58-.28c.63-1.29,1.34-2.67,2.25-4.34l.56.3C84.55,154.23,83.84,155.6,83.22,156.88Zm4.57-8.59-.57-.3,0,0a22.7,22.7,0,0,0,1.86-4.38l.62.19a23.38,23.38,0,0,1-1.92,4.5Zm2-9.41a11,11,0,0,0-1.14-4.56l.58-.29a11.67,11.67,0,0,1,1.2,4.82Z"/><path class="cls-11" d="M92.22,197.93c-.68-.56-1.34-1.12-2-1.68l.43-.48c.62.55,1.28,1.11,1.95,1.66Z"/><path class="cls-28" d="M81.47,119.72l-.85,10.37-6-6.79-19.48-16,16.62,5.23s8.18,4,8.55,4.5A20.52,20.52,0,0,1,81.47,119.72Z"/><polygon class="cls-6" points="90.3 115.26 55.11 107.35 81.47 119.72 90.3 115.26"/><polygon class="cls-6" points="67.94 127.4 78.78 121.99 55.11 107.35 67.94 127.4"/><path class="cls-28" d="M188.91,58h13.38a0,0,0,0,1,0,0v5a6.65,6.65,0,0,1-6.65,6.65h-.07A6.65,6.65,0,0,1,188.91,63V58A0,0,0,0,1,188.91,58Z"/><path class="cls-29" d="M175.54,58h13.38a0,0,0,0,1,0,0v5a6.65,6.65,0,0,1-6.65,6.65h-.07A6.65,6.65,0,0,1,175.54,63V58A0,0,0,0,1,175.54,58Z"/><path class="cls-28" d="M162.16,58h13.38a0,0,0,0,1,0,0v5a6.65,6.65,0,0,1-6.65,6.65h-.07A6.65,6.65,0,0,1,162.16,63V58A0,0,0,0,1,162.16,58Z"/><path class="cls-29" d="M148.78,58h13.38a0,0,0,0,1,0,0v5a6.65,6.65,0,0,1-6.65,6.65h-.07A6.65,6.65,0,0,1,148.78,63V58a0,0,0,0,1,0,0Z"/><path class="cls-28" d="M135.4,58h13.38a0,0,0,0,1,0,0v5a6.65,6.65,0,0,1-6.65,6.65h-.07A6.65,6.65,0,0,1,135.4,63V58A0,0,0,0,1,135.4,58Z"/><path class="cls-29" d="M229,58h13.38a0,0,0,0,1,0,0v5a6.65,6.65,0,0,1-6.65,6.65h-.07A6.65,6.65,0,0,1,229,63V58A0,0,0,0,1,229,58Z"/><path class="cls-28" d="M215.64,58H229a0,0,0,0,1,0,0v5a6.65,6.65,0,0,1-6.65,6.65h-.07A6.65,6.65,0,0,1,215.64,63V58A0,0,0,0,1,215.64,58Z"/><path class="cls-29" d="M202.29,58h13.38a0,0,0,0,1,0,0v5A6.65,6.65,0,0,1,209,69.61h-.07A6.65,6.65,0,0,1,202.29,63V58a0,0,0,0,1,0,0Z"/><path class="cls-29" d="M122,58H135.4a0,0,0,0,1,0,0v5a6.65,6.65,0,0,1-6.65,6.65h-.07A6.65,6.65,0,0,1,122,63V58a0,0,0,0,1,0,0Z"/><polygon class="cls-14" points="186.98 41.05 177.47 41.05 175.53 57.97 188.91 57.97 186.98 41.05"/><polygon class="cls-6" points="177.47 41.05 167.96 41.05 162.16 57.97 175.53 57.97 177.47 41.05"/><polygon class="cls-14" points="167.96 41.05 158.45 41.05 148.78 57.97 162.16 57.97 167.96 41.05"/><polygon class="cls-6" points="158.45 41.05 148.93 41.05 135.4 57.97 148.78 57.97 158.45 41.05"/><polygon class="cls-14" points="148.93 41.05 139.42 41.05 122.03 57.97 135.4 57.97 148.93 41.05"/><polygon class="cls-14" points="224.96 41.05 215.45 41.05 229.01 57.97 242.39 57.97 224.96 41.05"/><polygon class="cls-6" points="215.5 41.05 205.99 41.05 215.64 57.97 229.01 57.97 215.5 41.05"/><polygon class="cls-14" points="205.99 41.05 196.47 41.05 202.29 57.97 215.67 57.97 205.99 41.05"/><polygon class="cls-6" points="196.47 41.05 186.96 41.05 188.91 57.97 202.29 57.97 196.47 41.05"/></g></g></g></svg>