<svg xmlns="http://www.w3.org/2000/svg" xmlns:xlink="http://www.w3.org/1999/xlink" viewBox="0 0 394.69 304.29"><defs><style>.cls-1{isolation:isolate;}.cls-2{fill:#eff7fa;}.cls-3{fill:#83e4fe;}.cls-4{opacity:0.57;}.cls-5{fill:#6fb8cf;}.cls-6{fill:#fff;}.cls-7{fill:url(#linear-gradient);}.cls-8{fill:url(#linear-gradient-2);}.cls-9{fill:url(#linear-gradient-3);}.cls-10{fill:url(#linear-gradient-4);}.cls-11{fill:#f9fbfc;}.cls-12{fill:url(#linear-gradient-5);}.cls-13{fill:#d4e2fe;}.cls-14{fill:url(#linear-gradient-6);}.cls-15{fill:url(#linear-gradient-7);}.cls-16{fill:#e89c71;}.cls-17,.cls-30{opacity:0.21;mix-blend-mode:multiply;}.cls-17{fill:url(#linear-gradient-8);}.cls-18{fill:#496d36;}.cls-19{fill:url(#linear-gradient-9);}.cls-20{fill:#e37b46;}.cls-21{fill:url(#linear-gradient-10);}.cls-22{fill:url(#linear-gradient-11);}.cls-23{fill:#743b3a;}.cls-24{fill:#d1d9e3;}.cls-25{opacity:0.67;}.cls-26{opacity:0.53;}.cls-27{fill:url(#linear-gradient-12);}.cls-28{opacity:0.46;}.cls-29{fill:url(#linear-gradient-13);}.cls-31{fill:url(#linear-gradient-14);}.cls-32{fill:#5356cf;}.cls-33{fill:#783266;}.cls-34{fill:#dd3f99;}</style><linearGradient id="linear-gradient" x1="75.67" y1="135.15" x2="87.7" y2="135.15" gradientUnits="userSpaceOnUse"><stop offset="0" stop-color="#b568fb"/><stop offset="1" stop-color="#e28d3b"/></linearGradient><linearGradient id="linear-gradient-2" x1="-658.78" y1="231.73" x2="-624.97" y2="-19.55" gradientTransform="matrix(-1, 0, 0, 1, -389.88, 0)" gradientUnits="userSpaceOnUse"><stop offset="0" stop-color="#83e4fe"/><stop offset="0.5" stop-color="#cceaf2"/><stop offset="0.7" stop-color="#ebeded"/></linearGradient><linearGradient id="linear-gradient-3" x1="-727.82" y1="164.9" x2="-714.03" y2="164.9" gradientTransform="matrix(-1, 0, 0, 1, -389.88, 0)" gradientUnits="userSpaceOnUse"><stop offset="0" stop-color="#783266"/><stop offset="1" stop-color="#b55395"/></linearGradient><linearGradient id="linear-gradient-4" x1="161.66" y1="121.79" x2="332.43" y2="121.79" gradientUnits="userSpaceOnUse"><stop offset="0" stop-color="#783266"/><stop offset="0.22" stop-color="#7f366b"/><stop offset="0.54" stop-color="#93407a"/><stop offset="0.91" stop-color="#b25293"/><stop offset="0.94" stop-color="#b55395"/></linearGradient><linearGradient id="linear-gradient-5" x1="243.63" y1="52.1" x2="252.38" y2="163.43" gradientUnits="userSpaceOnUse"><stop offset="0" stop-color="#69a1d8"/><stop offset="1" stop-color="#6fb8cf"/></linearGradient><linearGradient id="linear-gradient-6" x1="239.05" y1="136.86" x2="239.05" y2="175.66" gradientUnits="userSpaceOnUse"><stop offset="0" stop-color="#496d36"/><stop offset="0.2" stop-color="#4f7439"/><stop offset="0.48" stop-color="#5f8840"/><stop offset="0.82" stop-color="#79a74c"/><stop offset="0.94" stop-color="#83b451"/></linearGradient><linearGradient id="linear-gradient-7" x1="-246.07" y1="177.85" x2="-222.72" y2="157.5" gradientTransform="matrix(-1, 0, 0, 1, -53.94, 0)" gradientUnits="userSpaceOnUse"><stop offset="0" stop-color="#83b451"/><stop offset="0.34" stop-color="#b4cf9a"/><stop offset="0.7" stop-color="#ebeded"/></linearGradient><linearGradient id="linear-gradient-8" x1="73.97" y1="253.91" x2="131.04" y2="253.91" gradientTransform="translate(94.18)" gradientUnits="userSpaceOnUse"><stop offset="0" stop-color="#496d36"/><stop offset="1" stop-color="#83b451"/></linearGradient><linearGradient id="linear-gradient-9" x1="-243.29" y1="231.43" x2="-248.55" y2="121.64" xlink:href="#linear-gradient-7"/><linearGradient id="linear-gradient-10" x1="-259.84" y1="229.46" x2="-265.1" y2="119.66" xlink:href="#linear-gradient-7"/><linearGradient id="linear-gradient-11" x1="-271.96" y1="189.82" x2="-274.7" y2="169" xlink:href="#linear-gradient-7"/><linearGradient id="linear-gradient-12" x1="189.79" y1="114.1" x2="211.99" y2="71.77" gradientUnits="userSpaceOnUse"><stop offset="0" stop-color="#783266"/><stop offset="1" stop-color="#6fb8cf"/></linearGradient><linearGradient id="linear-gradient-13" x1="526.27" y1="191.62" x2="570.18" y2="152.13" gradientTransform="translate(-454.15)" gradientUnits="userSpaceOnUse"><stop offset="0" stop-color="#6fb8cf"/><stop offset="1" stop-color="#fff"/></linearGradient><linearGradient id="linear-gradient-14" x1="94.99" y1="231.27" x2="153.61" y2="231.27" gradientTransform="translate(0.66 -0.35) rotate(0.16)" gradientUnits="userSpaceOnUse"><stop offset="0" stop-color="#5356cf"/><stop offset="1" stop-color="#95f7ff"/></linearGradient></defs><g class="cls-1"><g id="Layer_2" data-name="Layer 2"><g id="Layer_1-2" data-name="Layer 1"><path class="cls-2" d="M376.6,53.61c-6.76-8.47-16.12-14.42-25.22-20.13A220.56,220.56,0,0,0,283.7,5.53,212.64,212.64,0,0,0,236,0C133,0,84.36,44.33,109.85,82.79c54.21,81.8-74.26,32.52-102.51,80.81-20,34.15,4.49,73.48,29.84,96.85C74.1,294.5,124.63,312.11,174.45,301c24.69-5.53,40.79-21.84,57.58-39.37,16.16-16.89,35-31.38,56.29-41.22a153.72,153.72,0,0,1,32.15-10.79c12.54-2.7,24.89-3.71,37.68-4.49,7.55-.45,17-1.85,22.57-7.6,5.85-6.08,7.68-15.83,9.63-23.7,3-12.07,3.87-24.56,4.19-36.95.41-16.12.2-32.57-3-48.43-2.31-11.46-6.41-22.75-13.14-32.39C377.82,55.19,377.22,54.39,376.6,53.61Z"/><path class="cls-3" d="M300.26,227a4.69,4.69,0,0,1,2.13,3.7c0,1.37-1,1.92-2.15,1.23l-19.48-11.25a4.68,4.68,0,0,1-2.14-3.71c0-1.36,1-1.91,2.15-1.22Z"/><g class="cls-4"><path class="cls-5" d="M61.73,104.15a5.25,5.25,0,0,0-2.35,4.08l.16,55.43c0,3.53,2.52,5,5.58,3.21l33-19.06a5.25,5.25,0,0,0,2.35-4.09l-.16-55.42c0-3.53-2.52-5-5.58-3.21Z"/></g><path class="cls-6" d="M66.8,124.24a1.52,1.52,0,0,0-.7,1.21v2.94c0,.44.31.62.7.4l26.92-15.54a1.55,1.55,0,0,0,.7-1.21v-3c0-.44-.31-.62-.7-.4Z"/><path class="cls-6" d="M66.82,130.64a1.55,1.55,0,0,0-.7,1.21v3c0,.44.31.62.7.39l26.92-15.54a1.52,1.52,0,0,0,.7-1.21V115.5c0-.44-.32-.62-.7-.4Z"/><path class="cls-7" d="M77.33,135.41a3.67,3.67,0,0,0-1.66,2.87V139c0,1,.75,1.48,1.67.95l8.7-5A3.62,3.62,0,0,0,87.7,132v-.68c0-1.05-.75-1.47-1.67-.94Z"/><path class="cls-8" d="M175.8,12.07l-.27-.15-.34-.18-.33-.15-.34-.15-.33-.12-.07,0h0l-.25-.08-.34-.1-.34-.07c-.12,0-.24,0-.36-.06l-.25,0h-.51l-.43,0a3.46,3.46,0,0,0-.48.07h0a2.64,2.64,0,0,0-.55.15,3.14,3.14,0,0,0-.67.31l-5.51,3.2a3.9,3.9,0,0,1,1.22-.46h0a5,5,0,0,1,1.4-.07h0a7.07,7.07,0,0,1,1.53.34h0a8.91,8.91,0,0,1,1.68.77l150.58,87.17,5.51-3.2Z"/><path class="cls-9" d="M337.93,114.87c0-.14,0-.27,0-.41l0-.4c0-.14,0-.27-.05-.41a3,3,0,0,0-.06-.42h0c0-.13,0-.26-.07-.4l-.09-.43c0-.15-.06-.29-.1-.44s-.07-.29-.11-.44a3.37,3.37,0,0,1-.1-.34v0a.14.14,0,0,1,0-.07c0-.14-.09-.28-.14-.43l-.15-.42-.15-.4c-.05-.14-.11-.27-.16-.41s-.09-.2-.14-.31v0l0-.06c-.06-.14-.12-.27-.19-.41l-.21-.43-.25-.5-.3-.53-.05-.09-.06-.11c-.2-.33-.41-.66-.62-1s-.34-.51-.53-.75-.24-.33-.36-.48l-.32-.4-.33-.38c-.1-.12-.21-.24-.32-.35l-.06-.07,0,0-.25-.26-.35-.35-.36-.34-.37-.32-.19-.15,0,0-.14-.11-.37-.28-.36-.26-.35-.23-.35-.21-.09,0-5.5,3.2a13.28,13.28,0,0,1,1.65,1.15l0,0a15.59,15.59,0,0,1,1.52,1.42l0,0a19.08,19.08,0,0,1,2.6,3.52l.05.09c.36.63.69,1.28,1,1.93v0a19.22,19.22,0,0,1,.75,2v0a17.72,17.72,0,0,1,.47,2h0a12.81,12.81,0,0,1,.17,2l-.3,105.13a9,9,0,0,1-.17,1.78v.06a6.94,6.94,0,0,1-.47,1.46v0a4.55,4.55,0,0,1-.63,1,2.09,2.09,0,0,1-.23.29,4.27,4.27,0,0,1-.9.75l5.5-3.21a3.79,3.79,0,0,0,.91-.74,3.25,3.25,0,0,0,.23-.29,3.72,3.72,0,0,0,.3-.37,5.18,5.18,0,0,0,.31-.57l0,0v0c.06-.14.12-.28.17-.42s.1-.29.15-.44.08-.28.11-.42a1.62,1.62,0,0,1,0-.19v0l0-.17.06-.4c0-.13,0-.26,0-.4l0-.39c0-.13,0-.27,0-.4v0l.29-105.12Z"/><path class="cls-10" d="M324.15,104.1c4.59,2.65,8.29,9.07,8.28,14.34l-.3,105.13c0,5.27-3.75,7.4-8.34,4.74L169.94,139.49c-4.59-2.65-8.3-9.07-8.28-14.35L162,20c0-5.28,3.75-7.4,8.34-4.75Z"/><path class="cls-11" d="M314.65,103.87a16.76,16.76,0,0,1,7.61,13.18L322,213.69c0,4.85-3.45,6.8-7.67,4.37L180.13,140.63a16.76,16.76,0,0,1-7.61-13.19l.27-96.64c0-4.85,3.44-6.8,7.66-4.36Z"/><path class="cls-11" d="M326.58,187.86h0a1.14,1.14,0,0,1-1.13-1.13V153a1.13,1.13,0,0,1,1.13-1.12h0A1.12,1.12,0,0,1,327.7,153v33.69A1.13,1.13,0,0,1,326.58,187.86Z"/><path class="cls-6" d="M166.9,80a5.25,5.25,0,0,1,2.37,4.11c0,1.5-1.08,2.11-2.39,1.36a5.25,5.25,0,0,1-2.37-4.11C164.51,79.88,165.58,79.27,166.9,80Z"/><path class="cls-12" d="M259.16,94.3a25.14,25.14,0,0,1,.89,4.14,18.19,18.19,0,0,1,.14,2.43c0,.24,0,.47,0,.71a.34.34,0,0,0,0,.1c0,.23,0,.44-.05.66v.12c0,.21,0,.42-.07.63s-.08.48-.12.67-.1.45-.14.64l0,.09c-.05.19-.1.37-.16.55l0,.09c-.06.18-.12.36-.19.53s-.15.37-.22.52l-.27.53,0,.08-.26.43-.05.06a4.43,4.43,0,0,1-.29.42l-.32.39-.05,0c-.1.12-.21.23-.32.34l-.07.06-.34.3-.06,0-.36.27a4.45,4.45,0,0,1-.42.26l-.08,0c-.13.07-.26.14-.4.2a.2.2,0,0,1-.08,0l-.42.18-.27.09A17.88,17.88,0,0,0,247,96.09c-4.49-2.59-8.13-.51-8.15,4.64l.37.58-.32-.44-.47-.7-.07-.11-.42-.66-.09-.15c-.14-.22-.27-.45-.41-.69l-.4-.71-.07-.13c-.12-.23-.25-.47-.36-.7a.83.83,0,0,1-.07-.13l-.33-.68-.36-.78-.06-.15c-.11-.24-.21-.49-.31-.73l-.3-.77s0-.08,0-.12c-.09-.24-.18-.48-.26-.73a.58.58,0,0,0-.05-.14q-.24-.75-.45-1.5a.83.83,0,0,0,0-.15l-.18-.73,0-.12c-.05-.24-.1-.46-.14-.69s-.11-.57-.15-.81a.88.88,0,0,1,0-.16c0-.24-.08-.48-.11-.72s0-.53-.07-.76a.49.49,0,0,1,0-.12c0-.24,0-.47-.05-.7v-.15c0-.24,0-.48,0-.72a17.48,17.48,0,0,1,.16-2.24,11.3,11.3,0,0,1,.91-3.12,5.12,5.12,0,0,1,.27-.52c2.17-3.89,6.75-4.8,12-1.74,4.76,2.74,8.92,8,11.27,13.67.16.37.3.75.44,1.12C258.81,93.19,259,93.74,259.16,94.3Zm-12,.38c2.74,1.58,5,.31,5-2.83a10.86,10.86,0,0,0-4.94-8.55c-2.73-1.58-5-.32-5,2.83a10.9,10.9,0,0,0,4.94,8.55"/><path class="cls-13" d="M280.06,136.41a4.1,4.1,0,0,1,1.86,3.21l0,7.81c0,1.18-.84,1.66-1.87,1.06L208.6,107.25a4.09,4.09,0,0,1-1.86-3.21l0-7.81c0-1.17.83-1.65,1.86-1.06Z"/><path class="cls-13" d="M280,153.41a4.09,4.09,0,0,1,1.86,3.21l0,7.81c0,1.19-.84,1.65-1.87,1.06l-71.43-41.24A4,4,0,0,1,206.7,121l0-7.8c0-1.19.84-1.66,1.87-1.07Z"/><path class="cls-14" d="M248.15,156.82a7.61,7.61,0,0,1,3.46,6v1.41c0,2.21-1.56,3.09-3.48,2L230,155.71a7.65,7.65,0,0,1-3.47-6V148.3c0-2.19,1.57-3.08,3.48-2Z"/><path class="cls-15" d="M182.24,155.82s-6.16,3.55-7.11,19.8c.79,3,5.52,4.57,9.15,2.2S184.15,158.58,182.24,155.82Z"/><path class="cls-16" d="M213.59,173.36s14.11-6.29,16-7.35,3.32-5,4-5.82,3.92-2.73,3.8-1.9-1.78,2.38-1.78,2.38a13.63,13.63,0,0,1,1.43,3.32c.23,1.3-1.55,3.91-2.5,4.63a8.5,8.5,0,0,1-3.2.94s-11.51,7.72-13.4,7.83S213.35,176.45,213.59,173.36Z"/><ellipse class="cls-17" cx="196.69" cy="253.91" rx="28.53" ry="16.96"/><path class="cls-18" d="M184.85,250.26s-.36,2.69.13,3.79a2.76,2.76,0,0,0,3.79.73,38.17,38.17,0,0,0,3.66-3.42s3.91-2.08,4.28-3.18-1-2.07-2.08-1.83-4.28,2.2-5.74,2.2S185.34,248.92,184.85,250.26Z"/><path class="cls-18" d="M180.83,193s3.42,56.45,3.84,58.08,4.86,2.58,5.69,0c.52-1.65,1.81-53.89,1.81-53.89Z"/><path class="cls-18" d="M196.17,253.62a.85.85,0,0,0-.3.66,7.6,7.6,0,0,0,.46,3.18,3.29,3.29,0,0,0,4.25.79c1.58-.86,6.46-4.5,7.45-5.31a2.91,2.91,0,0,0,1-1.55.89.89,0,0,0-.5-1,4.21,4.21,0,0,0-2.93-.33c-1.61.54-3.64,2.29-5.84,2.19A5.38,5.38,0,0,0,196.17,253.62Z"/><path class="cls-18" d="M203.71,193.64c-.24-2.35-3.05-3.11-5.64-2.31-4.93-.27-12.57-.06-12.84,3.77a16.25,16.25,0,0,0,4.83,12.47c1.89,2,3.15,5.92,3.68,7.82.45,15,1.45,36.08,2.07,38.1,1,3.26,5.9,3.11,6.13-.06C202.93,242.72,203.71,193.64,203.71,193.64Z"/><path class="cls-19" d="M203.73,195.4c-.58,2.9-8.84,4.35-13.67,3.58s-10-3.14-9.85-8.74c0,0-.73-22.37-.73-26.77a13,13,0,0,1,2.76-7.65s2.71-3.09,11.2-1.35c0,0,6.93,1.5,10.11,6.62,0,0,2.2,5.62,1.47,17.36S203.73,195.4,203.73,195.4Z"/><path class="cls-20" d="M186.81,148.26s.73,4.28,0,6.23c-.12,1,4.16,4.28,7.94,3.42,2.2-.49,2.08-1.59,2.08-1.59a11.73,11.73,0,0,1-1.59-6C195.49,147.4,189.38,147.65,186.81,148.26Z"/><path class="cls-16" d="M201.11,139.64A10.09,10.09,0,1,1,191,129.56,10.08,10.08,0,0,1,201.11,139.64Z"/><path class="cls-16" d="M201.11,140.31s.12,10.1-2.08,12.14-5.58-1.91-11-3.17,4.38-11.89,4.38-11.89Z"/><path class="cls-21" d="M200.29,158.74s2.21-.63,4.74,3,6.15,8.36,7.88,9.15,4.11-.79,5.05-.79,3.47,4.42,2.53,6.63-7.1,3.31-8.68,3.31-11.83-6.15-13.25-9.62S194.93,158.89,200.29,158.74Z"/><path class="cls-22" d="M216.54,170.57a3.2,3.2,0,0,1,2.84-1.9c2.21-.15,4.73,4.11,4.58,6.47s-3.63,3.63-4.42,3S220.33,175.93,216.54,170.57Z"/><path class="cls-23" d="M197.06,131.13s3.63.79,4.73,6.31c-.47,2.37-3.78.47-5,3.63a17.35,17.35,0,0,1-2.05,4.1l-.78-.32s0-2.52-1.11-2.52-1.42,3-.79,4.26a4.66,4.66,0,0,0,2.05,1.89s-1.57,2.68-2.36,3-3.63-.32-4.74-.79-3.15-2.68-4.73-5.2-3-7-2-9.94a5.8,5.8,0,0,1,3.16-3.79,8,8,0,0,1,3.47-2.52A11,11,0,0,1,197.06,131.13Z"/><path class="cls-24" d="M198.8,156.58l-2.63-1.47s-6.73-.63-9.15-2.21l-1.26,1.79a7.68,7.68,0,0,0,6,3.68c4.31.42,6.31-1.26,6.31-1.26Z"/><g class="cls-25"><path class="cls-3" d="M317.42,76.61v3a2.27,2.27,0,0,1-3.4,2l-13.94-8.09a2.28,2.28,0,0,1-1.13-2V68.51a2.26,2.26,0,0,1,3.4-2l13.94,8.08A2.28,2.28,0,0,1,317.42,76.61Z"/><path class="cls-3" d="M361.52,116.76v3a2.27,2.27,0,0,1-3.4,2L300,88.14a2.26,2.26,0,0,1-1.13-2v-3a2.26,2.26,0,0,1,3.39-1.95l58.08,33.53A2.27,2.27,0,0,1,361.52,116.76Z"/><g class="cls-26"><path class="cls-3" d="M337.49,132.36v3a2.27,2.27,0,0,1-3.4,2L300,117.57a2.26,2.26,0,0,1-1.13-2v-3a2.27,2.27,0,0,1,3.4-2l34.13,19.71A2.24,2.24,0,0,1,337.49,132.36Z"/></g><path class="cls-3" d="M352.47,126.27v3a2.27,2.27,0,0,1-3.4,1.95L300,102.86a2.28,2.28,0,0,1-1.13-2v-3a2.26,2.26,0,0,1,3.39-2l49.08,28.34A2.26,2.26,0,0,1,352.47,126.27Z"/></g><g class="cls-25"><path class="cls-3" d="M84.44,55.54v1.52a1.16,1.16,0,0,0,1.75,1l7.17-4.16a1.16,1.16,0,0,0,.58-1V51.37a1.16,1.16,0,0,0-1.75-1L85,54.53A1.14,1.14,0,0,0,84.44,55.54Z"/><path class="cls-3" d="M61.75,76.19v1.53a1.16,1.16,0,0,0,1.75,1L93.38,61.47a1.16,1.16,0,0,0,.58-1V58.94a1.17,1.17,0,0,0-1.75-1L62.33,75.18A1.18,1.18,0,0,0,61.75,76.19Z"/><g class="cls-26"><path class="cls-3" d="M74.11,84.22v1.53a1.17,1.17,0,0,0,1.75,1L93.42,76.61a1.15,1.15,0,0,0,.59-1V74.08a1.16,1.16,0,0,0-1.74-1L74.69,83.21A1.18,1.18,0,0,0,74.11,84.22Z"/></g><path class="cls-3" d="M66.4,81.09v1.52a1.16,1.16,0,0,0,1.74,1L93.4,69A1.14,1.14,0,0,0,94,68V66.51a1.17,1.17,0,0,0-1.75-1L67,80.08A1.15,1.15,0,0,0,66.4,81.09Z"/></g><path class="cls-27" d="M204.49,109a12,12,0,1,1-12-12A12,12,0,0,1,204.49,109Z"/><polygon class="cls-6" points="191.41 114.57 186.38 110.9 188.21 108.39 190.82 110.3 196.1 103.56 198.54 105.47 191.41 114.57"/><g class="cls-28"><path class="cls-3" d="M176.74,55.69a11.31,11.31,0,0,1,5.13,8.89c0,3.28-2.32,4.6-5.16,3l-46.77-27a11.32,11.32,0,0,1-5.13-8.91c0-3.26,2.32-4.58,5.16-2.94Z"/></g><g class="cls-28"><path class="cls-3" d="M354,198.67a7.86,7.86,0,0,1,3.56,6.17c0,2.28-1.61,3.2-3.58,2.06l-32.51-18.77A7.85,7.85,0,0,1,318,182c0-2.27,1.61-3.19,3.58-2Z"/></g><path class="cls-29" d="M129.93,164.87a1.33,1.33,0,0,1,0,2.51L90,190.59a4.81,4.81,0,0,1-4.34,0L61,176.37a1.33,1.33,0,0,1,0-2.52L101,150.64a4.79,4.79,0,0,1,4.33,0Z"/><g class="cls-30"><ellipse class="cls-31" cx="124.3" cy="231.28" rx="29.31" ry="16.98" transform="translate(-0.66 0.35) rotate(-0.16)"/></g><path class="cls-32" d="M117.6,234.39a46.91,46.91,0,0,1-7.34,1.38c-2.07,0,0,2.06,3.44,2.29s6.66.46,7.34-.46-.15-3.52-.15-3.52Z"/><path class="cls-32" d="M132.29,229.57A46.91,46.91,0,0,1,125,231c-2.07,0,0,2.06,3.44,2.29s6.66.46,7.35-.46-.16-3.52-.16-3.52Z"/><path class="cls-33" d="M133.44,172.56s1.91,52.49,2.22,58a3.84,3.84,0,0,1-3.37.62s-6.2-34.44-7.11-43.31-2.45-11.94-2.45-11.94Z"/><path class="cls-33" d="M113.85,175.62s-1.84,30.3,3.67,59.69c0,0,1.84.92,3.37-1.23,0,0,3.37-51.42,4.29-58.76S116.3,174.09,113.85,175.62Z"/><path class="cls-33" d="M122.12,198.88s3.06-8.57,5.81-13.16,2.14-11.32,2.14-11.32l-10.4.92Z"/><path class="cls-16" d="M111.52,145.67l-9.1-4.41S99.67,138.5,99,138a19,19,0,0,0-6.07-1.52c-.82.14-2.34,1.38-1.93,1.66s4.28,2.34,4.41,3.17-1.37,1.93-.82,2.48,1.79-.55,2.62-.55a13.48,13.48,0,0,1,3.16,1.1l8.82,5.1Z"/><path class="cls-34" d="M130.92,136.83s-1.69-1.84-4.44,1.68-5,8.72-8.88,8.26-10.1-3.52-10.1-3.52-2.75,1.84-2.3,4.6c0,0,8.88,6.58,14.85,6.27s12.4-6.43,13.77-10.71S130.92,136.83,130.92,136.83Z"/><path class="cls-34" d="M112.51,175.56c.55,2.74,8.37,4.11,12.94,3.38s9.5-3,9.34-8.28c0,0,.69-21.18.69-25.35a12.3,12.3,0,0,0-2.62-7.25s-2.56-2.93-10.61-1.28c0,0-6.56,1.42-9.58,6.27,0,0-2.08,5.33-1.38,16.44S112.51,175.56,112.51,175.56Z"/><path class="cls-20" d="M128.54,130.89s-.7,4.06,0,5.91c.11.93-3.94,4-7.53,3.24-2.08-.46-2-1.5-2-1.5a11.13,11.13,0,0,0,1.51-5.68C120.32,130.08,126.11,130.32,128.54,130.89Z"/><path class="cls-16" d="M115,122.73a9.55,9.55,0,1,0,9.55-9.55A9.55,9.55,0,0,0,115,122.73Z"/><path class="cls-16" d="M115,123.37s-.12,9.57,2,11.5,5.28-1.81,10.4-3-4.15-11.26-4.15-11.26Z"/><path class="cls-16" d="M103.17,154.68s-13.37-6-15.17-7-3.15-4.72-3.82-5.51-3.71-2.58-3.6-1.8,1.69,2.25,1.69,2.25a12.75,12.75,0,0,0-1.35,3.15c-.23,1.23,1.46,3.71,2.36,4.38a8.17,8.17,0,0,0,3,.9s10.9,7.3,12.7,7.42S103.4,157.6,103.17,154.68Z"/><path class="cls-34" d="M115.08,142.57s-1.69-1.84-4.44,1.68-5,8.72-8.88,8.26S91.66,149,91.66,149s-2.75,1.84-2.29,4.59c0,0,8.87,6.59,14.84,6.28s12.4-6.43,13.77-10.71S115.08,142.57,115.08,142.57Z"/><path class="cls-23" d="M118.83,114.67s-3.44.75-4.49,6c.45,2.24,3.59.45,4.78,3.43a16.48,16.48,0,0,0,1.95,3.89l.74-.3s0-2.39,1-2.39,1.35,2.84.75,4a4.44,4.44,0,0,1-2,1.8s1.5,2.54,2.25,2.84,3.43-.3,4.48-.75,3-2.54,4.48-4.93,2.84-6.58,1.95-9.42a5.47,5.47,0,0,0-3-3.58,7.57,7.57,0,0,0-3.29-2.39A10.39,10.39,0,0,0,118.83,114.67Z"/><path class="cls-23" d="M118.06,121a7.52,7.52,0,0,1,1.15,6.65c-1.15,3.91.46,3.91,2.06,9s-3,11,1.38,18.36,16.07,6.43,21.35-.92-3-12.62-3.21-19.28,5.05-10.56-.92-15.15S131.37,110,124,112,114.85,117.77,118.06,121Z"/></g></g></g></svg>