<svg xmlns="http://www.w3.org/2000/svg" viewBox="0 0 409.57 318.3"><defs><style>.cls-1{isolation:isolate;}.cls-2{fill:#eff7fa;}.cls-3{fill:#e59368;}.cls-4{fill:#ecb683;}.cls-5{fill:#5b3557;}.cls-6{fill:#496d36;}.cls-7{fill:#83b451;}.cls-8{fill:#e5dbbd;}.cls-9{fill:#d1c39d;}.cls-10{fill:#688658;}.cls-11{fill:#b7af48;}.cls-12{fill:#ecb753;}.cls-13{fill:#f1cc68;}.cls-14{fill:#da9e3b;}.cls-15{fill:#fcf6e5;opacity:0.64;}.cls-15,.cls-19,.cls-23{mix-blend-mode:overlay;}.cls-16{fill:#865cba;}.cls-17{fill:#9870d3;}.cls-18{fill:#684399;}.cls-20{fill:#b45395;}.cls-21{fill:#ca85b4;}.cls-22{fill:#783266;}.cls-23{fill:#fdfff3;opacity:0.82;}.cls-24{fill:#5d3948;}.cls-25{fill:#482d38;}.cls-26{fill:#62404d;}.cls-27{fill:#885980;}.cls-28{fill:#6a3f64;}.cls-29{fill:#b29c7e;}.cls-30{fill:#d2bfa1;}.cls-31{fill:#2e2727;}.cls-32{fill:#efe6cf;}.cls-33{fill:#ede4cb;}.cls-34{fill:#3e3434;}.cls-35{fill:#473d3d;}.cls-36{fill:#574b4b;}.cls-37{fill:#78aece;}.cls-38{fill:#a6d9eb;}.cls-39{fill:#bbebf7;}.cls-40{fill:#524444;}.cls-41{fill:#cd4949;}.cls-42{fill:#eee7cd;}.cls-43{fill:#ad4545;opacity:0.6;mix-blend-mode:multiply;}.cls-44{fill:#d07a5b;}.cls-45{fill:#804231;}.cls-46{fill:#65342a;}.cls-47{fill:#bf5b42;}.cls-48{fill:#493434;}.cls-49{fill:#fff;}</style></defs><g class="cls-1"><g id="Layer_2" data-name="Layer 2"><g id="Layer_1-2" data-name="Layer 1"><path class="cls-2" d="M407.64,140.37c-2.73-11.86-8.89-22.15-14.9-32.08a226.41,226.41,0,0,0-50.67-58.4,197.9,197.9,0,0,0-41.51-26.11C205.94-20,143.14,6.48,150.77,58.13,167,168,69.25,61.15,23.5,100.43c-32.35,27.77-26,79.92-12.33,115.49,19.94,51.83,59.1,92,109.42,101.26,24.93,4.61,46.41-5.87,69-17.36,21.77-11.07,45-18.45,68.59-19.87a134.91,134.91,0,0,1,33.94,2.19c12.62,2.46,24.38,6.62,36.44,11.23,7.12,2.72,16.4,5.26,23.84,1.5,7.87-4,13.55-13.54,18.57-21.07,7.7-11.54,13.62-24.43,19-37.46,7-16.94,13.55-34.49,17.11-52.69,2.57-13.16,3.44-26.87,1.22-40C408.11,142.57,407.89,141.46,407.64,140.37Z"/><path class="cls-3" d="M215.05,145.53c3.63-.44,5.5-.94,6.77-1.05s4.23,4.24,4.4,5.12-2.81.66-3.63.44-2.09-1.87-2.09-1.87-2.59,1.7-4.3,1.54S215.05,145.53,215.05,145.53Z"/><path class="cls-4" d="M218.4,145.53c3.64-.44,5.51-.94,6.77-1.05s4.24,4.24,4.41,5.12-2.81.66-3.64.44-2.09-1.87-2.09-1.87-2.58,1.7-4.29,1.54S218.4,145.53,218.4,145.53Z"/><path class="cls-4" d="M205.75,150c4.78,2.7,12.21,2.21,15.3-.55s-3-4.78-7.71-5.39S205.75,150,205.75,150Z"/><path class="cls-3" d="M216.91,145.48a1.2,1.2,0,0,1,.29-.66,27.5,27.5,0,0,0-3.86-.78c-4.73-.6-7.59,5.94-7.59,5.94,4.78,2.7,12.49,2.26,15.57-.49C221.51,149.32,216.78,146.81,216.91,145.48Z"/><path class="cls-3" d="M238.88,145.53c3.63-.44,5.5-.94,6.77-1.05s4.23,4.24,4.4,5.12-2.81.66-3.63.44-2.1-1.87-2.1-1.87-2.58,1.7-4.29,1.54S238.88,145.53,238.88,145.53Z"/><path class="cls-4" d="M242.23,145.53c3.64-.44,5.51-.94,6.77-1.05s4.24,4.24,4.4,5.12-2.8.66-3.63.44-2.09-1.87-2.09-1.87-2.59,1.7-4.29,1.54S242.23,145.53,242.23,145.53Z"/><path class="cls-5" d="M178.84,143.79c12.49,5.81,31.45,6.12,31.45,6.12l5.53-7.25s-25-11.4-29.47-11.87S178.84,143.79,178.84,143.79Z"/><path class="cls-5" d="M189.32,100.83c-4.85-4.74-19.18-2.66-19.06,3.21.6,28.47,8.61,39.67,8.61,39.67l13-1.56S194.17,105.58,189.32,100.83Z"/><path class="cls-6" d="M282,149.57H202.26c-4.94,0-6.27,17.28-1.33,17.28h79.74C274.28,166.85,275.62,149.57,282,149.57Z"/><path class="cls-7" d="M197.92,157.89a183.23,183.23,0,0,0,34.62-.09c16.84-1.47,31.64-4.6,40.86-8.23H202.26C199.85,149.57,198.3,153.68,197.92,157.89Z"/><path class="cls-8" d="M339.17,151.6H282c-10.13,0-11.15,13.22-1,13.22h57.2C332.73,163,332.11,153.7,339.17,151.6Z"/><path class="cls-9" d="M292.37,156.39h41.91a6.94,6.94,0,0,1,4.89-4.79H282c-10.13,0-11.15,13.22-1,13.22h3.44C283.57,161,286.37,156.39,292.37,156.39Z"/><path class="cls-10" d="M338.81,149.57H275.54l-.22,3.05h63.27a1.64,1.64,0,0,0,1.58-1.53h0A1.37,1.37,0,0,0,338.81,149.57Z"/><path class="cls-10" d="M337.76,163.8H274.49l-.23,3h63.27a1.65,1.65,0,0,0,1.59-1.52h0A1.38,1.38,0,0,0,337.76,163.8Z"/><path class="cls-10" d="M282,149.57H274.6c-4.1,3-4.94,14.29-1.29,17.28h7.36C274.28,166.85,275.62,149.57,282,149.57Z"/><path class="cls-11" d="M236.23,149.38c-1.1,3.63.55,5.83,5.67,5.83s6.66-5.67,6.66-5.67Z"/><path class="cls-8" d="M331.06,168.5H267.55c-11.24,0-14.47,44-3.23,44h63.51C322.09,206.56,322.88,175.48,331.06,168.5Z"/><path class="cls-9" d="M286.2,178.82h39.74c1.15-4.59,2.85-8.38,5.12-10.32H267.55c-11.24,0-14.47,44-3.23,44h12C274.78,199,278.7,178.82,286.2,178.82Z"/><path class="cls-12" d="M271.46,166.33H182.92c-17.59-.7-19.53,47.62-1.94,48.32h88.54C254.44,214.05,256.38,165.73,271.46,166.33Z"/><path class="cls-13" d="M182.92,166.33c-9.74-.39-14.67,14.25-14.15,27.51,11.65,2.36,29.72,1.48,49.35-3.05,19.31-4.46,35.71-11.44,45.22-18.55,1.58-2.9,3.6-4.94,6-5.63.08-.09.15-.19.22-.28Z"/><path class="cls-14" d="M331.74,166.33h-70.5l-.64,4.58h70.51c.94,0,1.84-1,2-2.29h0C333.3,167.36,332.68,166.33,331.74,166.33Z"/><path class="cls-14" d="M330.22,210.68H260l-.68,4h70.24a2.3,2.3,0,0,0,2-2h0A1.53,1.53,0,0,0,330.22,210.68Z"/><path class="cls-14" d="M271.46,166.33H259.53c-8.58,8.79-9.56,39.53-1.35,48.32h11.34C254.44,214.05,256.38,165.73,271.46,166.33Z"/><path class="cls-15" d="M242.81,170.7H189.65c-14.41-.58-16,39-1.59,39.58H241.7C233.21,202.85,234.05,178.09,242.81,170.7Zm-6.49,36.18H191.89c-11.93-.48-10.61-33.26,1.32-32.78h44C230,180.22,229.29,200.73,236.32,206.88Z"/><path class="cls-9" d="M320.16,192.77c0-.23-10.87-.41-24.27-.41s-24.27.18-24.27.41,10.87.41,24.27.41S320.16,193,320.16,192.77Z"/><ellipse class="cls-9" cx="295.72" cy="184.68" rx="24.27" ry="0.41"/><path class="cls-9" d="M306,203.83c0-.22-9.24-.41-20.64-.41s-20.63.19-20.63.41,9.24.42,20.63.42S306,204.06,306,203.83Z"/><path class="cls-16" d="M250.64,213.9h-105c-6.51,0-16.49,32.1-10,32.1h105C232.25,246,242.22,213.9,250.64,213.9Z"/><path class="cls-17" d="M136.21,228.52c10,4.07,28.52,5.45,49.3,3,24.39-2.86,44.51-10.1,51-17.64H145.62C142.56,213.9,138.73,221,136.21,228.52Z"/><path class="cls-8" d="M325,217.67H249.62c-13.33,0-21,24.55-7.63,24.55h75.33C311,238.92,314.65,221.57,325,217.67Z"/><path class="cls-9" d="M268.77,225H317a16,16,0,0,1,7.92-7.32H249.62c-13.33,0-21,24.55-7.63,24.55h15.52C249.56,239.12,256.9,225,268.77,225Z"/><path class="cls-18" d="M325.42,213.9H242.07l-1.69,5.66h83.35c1.07,0,2.32-1.27,2.79-2.83h0C327,215.17,326.49,213.9,325.42,213.9Z"/><path class="cls-18" d="M317.54,240.33H234.18L232.49,246h83.36c1.07,0,2.31-1.27,2.78-2.84h0C319.1,241.6,318.61,240.33,317.54,240.33Z"/><path class="cls-18" d="M252.74,213.9h-12c-9.09,4.59-17.93,27.5-12.39,32.1h12C229.9,246,242.29,213.9,252.74,213.9Z"/><g class="cls-19"><path class="cls-8" d="M218.58,242.28h-74a2.12,2.12,0,0,1-2-1.19,5.59,5.59,0,0,1-.48-2.52c0-6.08,5.82-20.95,10.9-20.95h74.64l-1.13,1c-4.71,4-10.14,19-8.31,22.93ZM153,218.74c-3.58,0-9.6,13.52-9.6,19.83a4.61,4.61,0,0,0,.36,2.06.83.83,0,0,0,.78.53h72.2c-1.15-4.86,3.28-17.39,7.88-22.42Z"/></g><path class="cls-9" d="M303.81,234.79c0,.27-14,.49-31.2.49s-31.2-.22-31.2-.49,14-.5,31.2-.5S303.81,234.52,303.81,234.79Z"/><path class="cls-9" d="M309.26,228.19c0,.27-15,.49-33.59.49s-33.6-.22-33.6-.49,15-.5,33.6-.5S309.26,227.91,309.26,228.19Z"/><path class="cls-20" d="M223.31,244.31H68.22c-9.61,0-5.34,25.86,4.27,25.86H227.58C215.15,270.17,210.88,244.31,223.31,244.31Z"/><path class="cls-21" d="M129.29,260.61c37.79-2.6,70.39-9,87-16.3h-148c-5.57,0-6.47,8.69-4.37,16C81.54,262.08,104.41,262.32,129.29,260.61Z"/><path class="cls-8" d="M335.29,247.35H224c-19.69,0-16.43,19.78,3.26,19.78H338.55C327.3,264.46,322.38,250.49,335.29,247.35Z"/><path class="cls-9" d="M246.05,256.15h81.61c-.37-3.78,1.82-7.39,7.63-8.8H224c-19.69,0-16.43,19.78,3.26,19.78h5.88C231.54,261.85,235.48,256.15,246.05,256.15Z"/><path class="cls-22" d="M334.07,244.31H213.34l.71,4.56H334.78c1.55,0,2.65-1,2.45-2.28h0A3.11,3.11,0,0,0,334.07,244.31Z"/><path class="cls-22" d="M337.38,265.61H216.65l.71,4.56H338.09c1.55,0,2.65-1,2.45-2.28h0A3.11,3.11,0,0,0,337.38,265.61Z"/><path class="cls-22" d="M223.31,244.31H210.42c-7.7,4-4.76,21.85,4.27,25.86h12.89C215.15,270.17,210.88,244.31,223.31,244.31Z"/><path class="cls-23" d="M159.53,246.56H81.64c-7.93,0-4.41,21.35,3.53,21.35h77.89C156.74,265.25,154.09,249.23,159.53,246.56Z"/><path class="cls-23" d="M188.49,246.56H175.86c-7.94,0-4.41,21.35,3.52,21.35H192C186.54,264,184.3,250.45,188.49,246.56Z"/><path class="cls-9" d="M316.69,259.36c0,.28-20.06.5-44.81.5s-44.81-.22-44.81-.5,20.06-.49,44.81-.49S316.69,259.09,316.69,259.36Z"/><path class="cls-9" d="M315.21,262.5c0,.27-20.07.49-44.81.49s-44.81-.22-44.81-.49,20.06-.5,44.81-.5S315.21,262.22,315.21,262.5Z"/><polygon class="cls-24" points="142.31 164.58 184.06 171.94 206.74 212.53 207.81 212.53 195.24 159.9 165.71 147.91 158.4 141.77 142.31 164.58"/><polygon class="cls-25" points="183.38 172.6 206.47 212.06 186.1 166.6 153.8 161.05 152.35 151.04 141.84 166.41 183.38 172.6"/><polygon class="cls-26" points="132.08 148.49 122.43 192.94 86.62 235.34 87.21 236.22 137.63 199.37 154.65 164.46 163.65 159.01 167.46 143.23 132.08 148.49"/><path class="cls-25" d="M148.68,162.92l4,2.53-19.6,33L86.66,235.38l.55.84,51.1-36.53,16.92-33.47,9.3-7.71Q156.31,164.44,148.68,162.92Z"/><path class="cls-25" d="M129.17,161.88c10.74,1.47,29.36-7.41,38.27-13.27l-.74-.66.76-4.72-35.38,5.26Z"/><path class="cls-27" d="M129.74,158.87c7.46,2,35.65-10.3,37.57-11.84s-.73-9.65,12-16.37,14.92-19,9.21-30.71-35.23,5-44.15,22.52c0,0-7.6,5.85-15.35,25.73C125.9,156.18,128.05,158.41,129.74,158.87Z"/><path class="cls-28" d="M174.34,118.9a50,50,0,0,1-13.5,3.77c2.42,8.36-3.47,20.49-14.81,29.15a44.46,44.46,0,0,1-13.91,7.27c9.77-.23,33.43-10.65,35.19-12.06s-.73-9.65,12-16.37c10.18-5.38,13.6-14.33,11.65-23.68A45.51,45.51,0,0,1,174.34,118.9Z"/><path class="cls-4" d="M181.86,96.74c3.61-4.25,7.91-13.11,9.14-17.69l8.62,10.87L188.9,110.68Z"/><path class="cls-27" d="M183,94.54l-3.57,1.84s7.6,11.73,12.47,13.34l.45-5.61Z"/><polygon class="cls-29" points="298.44 116.22 284.76 116.22 297.92 148.39 314.75 148.39 298.44 116.22"/><rect class="cls-30" x="260.16" y="28.83" width="74.43" height="99.88" rx="9.35"/><path class="cls-31" d="M334.59,112.38V36.87a8,8,0,0,0-8-8H268.2a8,8,0,0,0-8,8v75.51Z"/><polygon class="cls-30" points="295.44 116.22 281.77 116.22 294.93 148.39 311.76 148.39 295.44 116.22"/><polygon class="cls-29" points="306.51 137.04 295.44 116.22 281.77 116.22 290.89 138.53 306.51 137.04"/><rect class="cls-8" x="251.39" y="28.83" width="74.43" height="99.88" rx="9.35"/><polygon class="cls-32" points="262.53 128.7 294.65 128.7 312.31 28.83 288.39 28.83 262.53 128.7"/><path class="cls-33" d="M325.34,32a11.88,11.88,0,0,1,.14,1.82v86.67c0,3.65-1.62,6.6-3.61,6.6H255.54c-2,0-3.61-3-3.61-6.6V33.85a11.88,11.88,0,0,1,.14-1.82,10.71,10.71,0,0,0-.58,3.58v86.67c0,3.65,1.62,6.6,3.61,6.6h67.2c2,0,3.62-2.95,3.62-6.6V35.61A10.71,10.71,0,0,0,325.34,32Z"/><polygon class="cls-8" points="314.23 146.15 297.66 146.15 297.66 149.35 315.69 149.35 314.23 146.15"/><rect class="cls-32" x="279.31" y="146.15" width="18.59" height="3.2"/><path class="cls-34" d="M322.73,28.83H255c-2,0-3.64,3-3.64,6.6v76.95h75V35.43C326.37,31.78,324.74,28.83,322.73,28.83Z"/><polygon class="cls-35" points="297.54 112.38 312.31 28.83 288.39 28.83 266.76 112.38 297.54 112.38"/><path class="cls-36" d="M254.69,31.39h67.83c1.46,0,2.71,1.54,3.29,3.76-.08-3.52-1.66-6.32-3.6-6.32H255c-1.95,0-3.53,2.8-3.61,6.32C252,32.93,253.24,31.39,254.69,31.39Z"/><rect class="cls-37" x="254.35" y="34.59" width="68.51" height="77.79"/><rect class="cls-38" x="255.22" y="35.85" width="66.77" height="75.26"/><polygon class="cls-39" points="311.09 35.85 280.85 35.85 266.12 111.11 296.37 111.11 311.09 35.85"/><rect class="cls-30" x="282.19" y="120.9" width="12.82" height="1.56" rx="0.68"/><rect class="cls-32" x="255.9" y="46.91" width="63.11" height="56.57"/><rect class="cls-40" x="257.62" y="56.19" width="58.01" height="37.36"/><rect class="cls-41" x="280.29" y="71.09" width="12.68" height="8.17" rx="1.97"/><polygon class="cls-32" points="284.95 72.97 284.95 77.97 288.3 75.47 284.95 72.97"/><path class="cls-42" d="M90.73,244.26H85.34l-2.43-8.92s4.19-3,5.07-.22-.77,6.71-.77,6.71Z"/><path class="cls-42" d="M215.82,213.9H206s-.49-2.88,1-3.38S215.82,213.9,215.82,213.9Z"/><path class="cls-27" d="M157.54,117.46c5.94,9.25,7.26,20.8,7.26,20.8l-8.25-15.63Z"/><path class="cls-43" d="M198.61,88.64,191,79.05a61.8,61.8,0,0,1-7.7,15.82l-.32-.33-3.07,1.58a19.45,19.45,0,0,0-2.18.32c2.48,1.54,7.34,2.19,9.53,5.61,3,4.74,2.05,13,5.05,15.78-.09-2.88-.24-5.67-.51-8.15l.08,0,.45-5.61,0,0,6.94-13.45C199.05,90,198.84,89.29,198.61,88.64Z"/><path class="cls-27" d="M167.75,115c19.82,20.53,34.65,23.25,34.65,23.25l10.68-10.09s-22.67-28.51-30.27-28.65S163.66,110.77,167.75,115Z"/><path class="cls-28" d="M167.14,114.08a3.11,3.11,0,0,0,.6,1c19.4,20.75,34.09,23.62,34.09,23.62l4.68-4.3C200.08,133,185.73,128.53,167.14,114.08Z"/><path class="cls-4" d="M229.58,150c4.78,2.7,12.21,2.21,15.29-.55s-3-4.78-7.7-5.39S229.58,150,229.58,150Z"/><path class="cls-3" d="M240.74,145.48a1.2,1.2,0,0,1,.29-.66,27.5,27.5,0,0,0-3.86-.78c-4.73-.6-7.59,5.94-7.59,5.94,4.78,2.7,12.49,2.26,15.57-.49C245.34,149.32,240.61,146.81,240.74,145.48Z"/><path class="cls-27" d="M197.72,136.07c11.7,9.21,32.17,15.06,32.17,15.06l10.44-6.81S214.68,127.59,210,125.83,197.72,136.07,197.72,136.07Z"/><path class="cls-28" d="M200,132.92a5.19,5.19,0,0,0-3.12,3.14c11.7,9.21,33.06,15.07,33.06,15.07l4-2.58C228,146.58,211.25,141.07,200,132.92Z"/><path class="cls-4" d="M209.64,76c1-.6,4,10.51,3.6,11.92-.2.7-5.26-.2-5.26-.2S209.45,76.12,209.64,76Z"/><path class="cls-44" d="M210.05,76.35c1,2.26,3.32,10.21,3,11.39-.16.53-3.32.11-4.62-.12l0,.39s5.36,1.17,5.55.47C214.24,87.14,211.07,76.72,210.05,76.35Z"/><path class="cls-45" d="M185.53,91.74c-6.09-12.59-1.81-21.56-1.81-21.56s-5.3-4.35-.65-10.76,13.5-7.71,17.19-5.58c0,0,9.28-6,14.23-2.51s.8,8.24.8,8.24,3.94,3.15,2.74,7.71-8.77,4.25-8.77,4.25Z"/><path class="cls-46" d="M209.11,69.69c-12.14-.88-21.57-6.14-21.05-11.75A6.12,6.12,0,0,1,190.31,54a15.92,15.92,0,0,0-7.24,5.43c-4.65,6.41.65,10.76.65,10.76s-4.28,9,1.81,21.56l23.73-20.21s4.57.17,7.17-1.89A45.65,45.65,0,0,1,209.11,69.69Z"/><path class="cls-4" d="M197.48,68.55c-2.78,5.38-3.64,19.14-4.1,21.08-.6,2.46-.23,6.54,2.8,8.24,7.14,4,11.12,1.73,11.73,0,3.66-10.28,3.55-28.63,3-30.27S204.09,62,200.7,62.22,198.33,66.92,197.48,68.55Z"/><path class="cls-46" d="M197.22,59.77c13,1.56,1.65,29.74,1.65,29.74l-12.72.68S184.27,58.21,197.22,59.77Z"/><path class="cls-4" d="M199,79.39c-1.19-3.43-7.37-1.45-6.35,1.91s2.84,10,5,8.53S199.69,81.52,199,79.39Z"/><path class="cls-47" d="M197.67,81.38c-.66-1.9-4.08-.8-3.52,1.06s1.57,5.51,2.76,4.72S198.08,82.56,197.67,81.38Z"/><path class="cls-4" d="M197.88,84.27c-.48-1.37-2.94-.58-2.54.76s1.13,4,2,3.4S198.17,85.12,197.88,84.27Z"/><path class="cls-48" d="M208.89,79.15c.19-1.42-.16-2.59-.78-2.62s-1.27,1.11-1.46,2.52.16,2.6.78,2.63S208.7,80.57,208.89,79.15Z"/><path class="cls-45" d="M213.07,72.09c-.42-.89-5-1.2-6.14-1.06s-1.16,1.08-1,2.07,4.56,3,6,1.89C212.63,74.47,213.5,73,213.07,72.09Z"/><path class="cls-44" d="M204,90.19c-.61-.77.6-3.1,1.16-4.06l-.34-.3s-2.13,3.47-1.4,4.41,3.59,3,4.71,2.86l.25,0A11,11,0,0,1,204,90.19Z"/><path class="cls-44" d="M205.42,93.32c.13-.18-.13-.52-.59-.76s-.92-.3-1.06-.12.13.53.59.77S205.28,93.5,205.42,93.32Z"/><polygon class="cls-7" points="171.52 50.97 182.48 57.62 173.12 45.08 171.52 50.97"/><rect class="cls-7" x="115.78" width="60.68" height="52.14" rx="8.04"/><polygon class="cls-49" points="149.73 34.43 141.71 34.43 143.9 42.27 147.54 42.27 149.73 34.43"/><polygon class="cls-49" points="146.65 41.47 144.78 41.47 145.04 42.92 146.39 42.92 146.65 41.47"/><path class="cls-49" d="M145.72,17.92c-4.47,0-7.67,4.38-7.67,9.79s3.2,9.79,7.67,9.79,7.66-4.39,7.66-9.79S150.18,17.92,145.72,17.92ZM144,36.18c-3.87-.76-5.81-5.18-4.91-9.86s4.5-7.85,8.36-7.09,5.82,5.18,4.91,9.86S147.86,37,144,36.18Z"/><path class="cls-49" d="M147.42,37l-.82,0,.88-7.69a5.83,5.83,0,0,1-3,0l1.15,7.34-.88.17L143,27.26l.88.36s2.38,1,4,0l.89-.53Z"/><path class="cls-49" d="M133.22,38.11c1-.81,3.23-3,2.77-3.45s-3.22,1.36-4.24,2.17-1.55,1.71-1.1,2.11S132.21,38.92,133.22,38.11Z"/><path class="cls-49" d="M161.39,34.92c-1.15-.64-4.26-2-4.72-1.55s2.11,2.21,3.26,2.84,2.36.9,2.81.5S162.54,35.55,161.39,34.92Z"/><path class="cls-49" d="M167.27,25.58c-1.09-.13-3.83-.19-3.93.22s2.53,1,3.62,1.14,2,0,2.13-.44S168.36,25.71,167.27,25.58Z"/><path class="cls-49" d="M141.93,10.28c.15,1,.81,3.31,1.29,3.28s.4-2.42.25-3.39-.57-1.72-1-1.69S141.78,9.32,141.93,10.28Z"/><path class="cls-49" d="M126,28.48c1.23-.14,4.16-.81,4-1.36s-3.26-.56-4.49-.42-2.13.58-2,1.14S124.73,28.62,126,28.48Z"/><path class="cls-49" d="M159.15,10.77c-1,.68-3.06,2.59-2.61,3s3.1-1,4.07-1.71,1.46-1.47,1-1.87S160.11,10.09,159.15,10.77Z"/><path class="cls-49" d="M125.65,14.31c1.2.93,4.34,2.94,4.73,2.54s-2.71-3.43-4.13-4.54-2.67-1.54-2.73-.78S124.43,13.37,125.65,14.31Z"/></g></g></g></svg>