<svg xmlns="http://www.w3.org/2000/svg" xmlns:xlink="http://www.w3.org/1999/xlink" viewBox="0 0 332.83 256.64"><defs><style>.cls-1{isolation:isolate;}.cls-2{fill:#eff7fa;}.cls-3{opacity:0.23;}.cls-3,.cls-32,.cls-50,.cls-53{mix-blend-mode:multiply;}.cls-4{fill:url(#Degradado_sin_nombre_4);}.cls-5{fill:url(#Degradado_sin_nombre_4-2);}.cls-6{fill:url(#Degradado_sin_nombre_4-3);}.cls-7{fill:url(#Degradado_sin_nombre_4-4);}.cls-8{fill:url(#Degradado_sin_nombre_4-5);}.cls-9{fill:url(#Degradado_sin_nombre_4-6);}.cls-10{fill:url(#Degradado_sin_nombre_4-7);}.cls-11{fill:url(#Degradado_sin_nombre_4-8);}.cls-12{fill:url(#Degradado_sin_nombre_4-9);}.cls-13{fill:url(#Degradado_sin_nombre_4-10);}.cls-14{fill:url(#Degradado_sin_nombre_4-11);}.cls-15{fill:url(#Degradado_sin_nombre_4-12);}.cls-16{fill:url(#Degradado_sin_nombre_4-13);}.cls-17{fill:url(#Degradado_sin_nombre_4-14);}.cls-18{fill:url(#Degradado_sin_nombre_4-15);}.cls-19{fill:url(#Degradado_sin_nombre_4-16);}.cls-20{fill:url(#Degradado_sin_nombre_4-17);}.cls-21{fill:url(#Degradado_sin_nombre_4-18);}.cls-22{fill:url(#Degradado_sin_nombre_4-19);}.cls-23{fill:url(#Degradado_sin_nombre_4-20);}.cls-24{fill:url(#Degradado_sin_nombre_4-21);}.cls-25{fill:url(#Degradado_sin_nombre_4-22);}.cls-26{fill:url(#Degradado_sin_nombre_4-23);}.cls-27{fill:#d5eaf1;}.cls-28{fill:#cfe5ff;}.cls-29{fill:#cfe2bb;}.cls-30{fill:#496d36;}.cls-31,.cls-45{fill:none;stroke-miterlimit:10;}.cls-31{stroke:#d8171c;stroke-width:1.66px;}.cls-32{fill:#e5ebf4;}.cls-33{fill:#b55395;}.cls-34{fill:#783266;}.cls-35{fill:#e7d1ad;}.cls-36{fill:#e0bd82;}.cls-37{fill:#e7cb9e;}.cls-38{fill:#e0b695;}.cls-39{fill:#e0ab82;}.cls-40{fill:#393939;}.cls-41{fill:#47787f;}.cls-42{fill:#5a858b;}.cls-43{fill:#424242;}.cls-44{fill:#e5f1ff;}.cls-45{stroke:#000;stroke-linecap:round;stroke-width:0.83px;}.cls-46{fill:#d49500;}.cls-47{fill:#b8e3c2;}.cls-48{fill:#9ecdbb;}.cls-49{fill:url(#Degradado_sin_nombre_6);}.cls-51{fill:#e1e3e6;}.cls-52{fill:#ffb700;}.cls-53{fill:#e7e7e6;}.cls-54{fill:#ffc400;}.cls-55{fill:#fefefe;}.cls-56{fill:#eaf4ff;}.cls-57{fill:#606060;}.cls-58{fill:#b45395;}.cls-59{mix-blend-mode:screen;}.cls-60{fill:url(#Degradado_sin_nombre_16);}.cls-61{fill:url(#Degradado_sin_nombre_16-2);}.cls-62{fill:#ffa1a1;}.cls-63{fill:#69a1d8;}.cls-64{fill:#c3f0ce;}.cls-65{fill:#6fb8cf;}.cls-66{fill:#f7fbfc;}.cls-67{fill:#83b451;}</style><linearGradient id="Degradado_sin_nombre_4" x1="50.33" y1="159.99" x2="91.74" y2="159.99" gradientUnits="userSpaceOnUse"><stop offset="0" stop-color="#bb7ad5"/><stop offset="1" stop-color="#fbfbfb"/></linearGradient><linearGradient id="Degradado_sin_nombre_4-2" x1="45.28" y1="157.38" x2="91.57" y2="157.38" xlink:href="#Degradado_sin_nombre_4"/><linearGradient id="Degradado_sin_nombre_4-3" x1="20.31" y1="139.01" x2="79.79" y2="139.01" xlink:href="#Degradado_sin_nombre_4"/><linearGradient id="Degradado_sin_nombre_4-4" x1="56.07" y1="162.64" x2="91.31" y2="162.64" xlink:href="#Degradado_sin_nombre_4"/><linearGradient id="Degradado_sin_nombre_4-5" x1="40.75" y1="154.77" x2="90.88" y2="154.77" xlink:href="#Degradado_sin_nombre_4"/><linearGradient id="Degradado_sin_nombre_4-6" x1="73.41" y1="167.96" x2="84.59" y2="167.96" xlink:href="#Degradado_sin_nombre_4"/><linearGradient id="Degradado_sin_nombre_4-7" x1="36.61" y1="152.15" x2="89.79" y2="152.15" xlink:href="#Degradado_sin_nombre_4"/><linearGradient id="Degradado_sin_nombre_4-8" x1="23.06" y1="141.64" x2="82.31" y2="141.64" xlink:href="#Degradado_sin_nombre_4"/><linearGradient id="Degradado_sin_nombre_4-9" x1="26.05" y1="144.27" x2="84.58" y2="144.27" xlink:href="#Degradado_sin_nombre_4"/><linearGradient id="Degradado_sin_nombre_4-10" x1="29.29" y1="146.9" x2="86.6" y2="146.9" xlink:href="#Degradado_sin_nombre_4"/><linearGradient id="Degradado_sin_nombre_4-11" x1="32.8" y1="149.53" x2="88.34" y2="149.53" xlink:href="#Degradado_sin_nombre_4"/><linearGradient id="Degradado_sin_nombre_4-12" x1="63" y1="165.3" x2="89.69" y2="165.3" xlink:href="#Degradado_sin_nombre_4"/><linearGradient id="Degradado_sin_nombre_4-13" x1="11.76" y1="128.48" x2="67.3" y2="128.48" xlink:href="#Degradado_sin_nombre_4"/><linearGradient id="Degradado_sin_nombre_4-14" x1="13.5" y1="131.11" x2="70.81" y2="131.11" xlink:href="#Degradado_sin_nombre_4"/><linearGradient id="Degradado_sin_nombre_4-15" x1="15.52" y1="133.74" x2="74.05" y2="133.74" xlink:href="#Degradado_sin_nombre_4"/><linearGradient id="Degradado_sin_nombre_4-16" x1="17.79" y1="136.37" x2="77.05" y2="136.37" xlink:href="#Degradado_sin_nombre_4"/><linearGradient id="Degradado_sin_nombre_4-17" x1="8.79" y1="115.37" x2="44.03" y2="115.37" xlink:href="#Degradado_sin_nombre_4"/><linearGradient id="Degradado_sin_nombre_4-18" x1="15.51" y1="110.06" x2="26.69" y2="110.06" xlink:href="#Degradado_sin_nombre_4"/><linearGradient id="Degradado_sin_nombre_4-19" x1="10.32" y1="125.86" x2="63.5" y2="125.86" xlink:href="#Degradado_sin_nombre_4"/><linearGradient id="Degradado_sin_nombre_4-20" x1="8.36" y1="118.02" x2="49.78" y2="118.02" xlink:href="#Degradado_sin_nombre_4"/><linearGradient id="Degradado_sin_nombre_4-21" x1="10.41" y1="112.71" x2="37.1" y2="112.71" xlink:href="#Degradado_sin_nombre_4"/><linearGradient id="Degradado_sin_nombre_4-22" x1="9.22" y1="123.24" x2="59.36" y2="123.24" xlink:href="#Degradado_sin_nombre_4"/><linearGradient id="Degradado_sin_nombre_4-23" x1="8.53" y1="120.63" x2="54.82" y2="120.63" xlink:href="#Degradado_sin_nombre_4"/><linearGradient id="Degradado_sin_nombre_6" x1="165.15" y1="168.82" x2="165.15" y2="45.7" gradientUnits="userSpaceOnUse"><stop offset="0" stop-color="#cac7c2"/><stop offset="0.22" stop-color="#dedcd9"/><stop offset="0.47" stop-color="#eeedec"/><stop offset="0.73" stop-color="#f8f8f7"/><stop offset="1" stop-color="#fbfbfb"/></linearGradient><linearGradient id="Degradado_sin_nombre_16" x1="65.55" y1="130" x2="82.56" y2="130" gradientUnits="userSpaceOnUse"><stop offset="0"/><stop offset="0.49" stop-color="#c4171c"/><stop offset="1"/></linearGradient><linearGradient id="Degradado_sin_nombre_16-2" x1="103.9" y1="88.39" x2="124.14" y2="88.39" xlink:href="#Degradado_sin_nombre_16"/></defs><g class="cls-1"><g id="Layer_2" data-name="Layer 2"><g id="Layer_1-2" data-name="Layer 1"><path class="cls-2" d="M317.57,45.21c-5.69-7.14-13.59-12.15-21.26-17A186.25,186.25,0,0,0,239.23,4.66,179.57,179.57,0,0,0,199,0C112.11,0,71.14,37.39,92.63,69.82,138.35,138.81,30,97.25,6.19,138c-16.85,28.8,3.79,62,25.16,81.68,31.14,28.72,73.75,43.57,115.76,34.16,20.81-4.67,34.39-18.42,48.55-33.21,13.63-14.24,29.53-26.46,47.47-34.76a129.05,129.05,0,0,1,27.11-9.1c10.58-2.28,21-3.13,31.78-3.79,6.37-.38,14.36-1.56,19-6.41,4.93-5.13,6.48-13.35,8.12-20,2.53-10.18,3.26-20.71,3.53-31.16.34-13.6.17-27.47-2.53-40.84-2-9.67-5.41-19.19-11.08-27.32C318.6,46.55,318.1,45.87,317.57,45.21Z"/><g class="cls-3"><path class="cls-4" d="M91.72,140.36c0-.36,0-.72,0-1.08L50.33,180.69l1.08,0Z"/><path class="cls-5" d="M91.57,135.2c0-.32-.06-.64-.1-1L45.28,180.42l1,.1Z"/><path class="cls-6" d="M20.31,168.22l.26.27.27.26,59-59-.26-.27-.27-.26Z"/><path class="cls-7" d="M91.1,146.29c.08-.42.15-.84.21-1.27L56.07,180.26l1.27-.2Z"/><path class="cls-8" d="M90.88,130.58l-.18-.88-49.95,50,.87.19Z"/><path class="cls-9" d="M84.59,162.37,73.41,173.54a41.55,41.55,0,0,0,6.12-5A42.15,42.15,0,0,0,84.59,162.37Z"/><path class="cls-10" d="M89.79,126.36l-.27-.8L36.61,178.48l.8.26Z"/><path class="cls-11" d="M23.06,170.78l.58.48,58.67-58.67-.48-.58Z"/><path class="cls-12" d="M84.58,115.63l-.43-.63-58.1,58.1.63.43Z"/><path class="cls-13" d="M86.6,118.92l-.38-.67L29.29,175.17l.68.38Z"/><path class="cls-14" d="M88.34,122.49c-.1-.24-.21-.49-.32-.73L32.8,177l.74.33Z"/><path class="cls-15" d="M89.12,153.59c.2-.54.39-1.09.57-1.64L63,178.64c.55-.17,1.09-.36,1.63-.57Z"/><path class="cls-16" d="M67.3,101l-.73-.33L11.76,155.52c.1.25.21.49.33.74Z"/><path class="cls-17" d="M70.81,102.84l-.68-.38L13.5,159.09l.39.68Z"/><path class="cls-18" d="M74.05,104.91c-.2-.15-.41-.29-.62-.43l-57.91,57.9L16,163Z"/><path class="cls-19" d="M77.05,107.23l-.58-.48L17.79,165.42c.16.2.32.39.49.58Z"/><path class="cls-20" d="M44,97.75l-1.26.2L9,131.72,8.79,133Z"/><path class="cls-21" d="M26.69,104.47a41.55,41.55,0,0,0-6.12,5,43.37,43.37,0,0,0-5.06,6.12Z"/><path class="cls-22" d="M63.5,99.53l-.8-.26L10.32,151.65c.08.27.17.53.26.8Z"/><path class="cls-23" d="M49.78,97.32l-1.09,0L8.38,137.65c0,.36,0,.72,0,1.08Z"/><path class="cls-24" d="M11,124.42c-.2.55-.39,1.09-.57,1.64L37.1,99.37c-.55.18-1.09.37-1.63.57Z"/><path class="cls-25" d="M59.36,98.36l-.88-.19L9.22,147.44c.06.29.12.58.19.87Z"/><path class="cls-26" d="M54.82,97.59l-1-.1L8.53,142.81c0,.32.07.64.1,1Z"/></g><circle class="cls-27" cx="45.67" cy="96.83" r="9.56"/><circle class="cls-28" cx="16.16" cy="231.9" r="4.99"/><path class="cls-29" d="M91.37,115.76c-1.71-.46-4.39-4.76-6.6-5s-4.89,2.41-7.15.76-2.47-8.69-5.05-10.1-4.52.17-5.51-1.49.29-7.32-2-9.32-4.21-1.33-4.67-3.07.92-4.51-.94-7.12-2.58-6,.21-4.4,5.28,3.53,8.09,2.9S70,83.15,72,84.29s5-.79,6.58.23,1.74,6.45,3.1,7,6.75-3.25,9.28-2.2-.56,7.91,2.14,8.93,6,2.32,6,2.32Z"/><path class="cls-30" d="M63.75,82.51s3,10.06,30.35,27.54l1.74-2.82S73.78,97.64,63.75,82.51Z"/><path class="cls-31" d="M61.73,134.32c-6.09,4.06-9.55,24.18,2.24,24.58,8.12.28,11.32-7,8.27-9.31-7.66-5.72-16.6,14.39-7.66,18.46,4.22,1.91,8.49-1.14,13.11-4.87,7-5.69,14.89-12.94,24.47-6.31"/><path class="cls-32" d="M209.46,196.93c0,1.6-5.32,2.89-11.87,2.89s-11.87-1.29-11.87-2.89S191,194,197.59,194,209.46,195.33,209.46,196.93Z"/><path class="cls-32" d="M141.81,208.31c0,1.6-5.32,2.89-11.87,2.89s-11.87-1.29-11.87-2.89,5.32-2.89,11.87-2.89S141.81,206.72,141.81,208.31Z"/><path class="cls-32" d="M233,190.68H98a47.88,47.88,0,0,1-13.91-2.07l-21-6.41H270l-24.19,6.73A47.58,47.58,0,0,1,233,190.68Z"/><path class="cls-33" d="M259.82,68.47a48.37,48.37,0,0,0-12.08.8,10.65,10.65,0,0,0-7.29,5c-2.83,4.68-7.21,12.1-8.14,14.7,0,0-7.79-1.21-12.18-3.89L218.19,89s4.48,3.1,17.66,7.42a64.71,64.71,0,0,0,6-11.66s-.44,3.19,1.06,8.83c1.19,4.46-1.59,21.88-1.59,21.88l28.67-1-2.36-17.32,3.48-4.47a5.71,5.71,0,0,0,1.13-4.46,47.57,47.57,0,0,0-4.86-14.76A9.56,9.56,0,0,0,259.82,68.47Z"/><path class="cls-34" d="M264.9,89.67l-1.06-7.33s-1.42,9.62-2,10.77Z"/><path class="cls-35" d="M254.12,99.07c-1.46.51-5.22,1.71-4.88,2.47.2.44,2.85-.6,3.15-.25s-.73,1.68-2.42,2.58c-1.32.69-2.23.54-2.29,1.17-.07.8,3.82.72,4.82.59a5.5,5.5,0,0,0,2.63-1.11,17.38,17.38,0,0,0,1.78-1.83,15.64,15.64,0,0,1,2.42-1.86l-1.93-3.14S255,98.78,254.12,99.07Z"/><path class="cls-36" d="M250.14,63.56l.61,7s3.78,3.23,7.07-.41L256,61.69Z"/><path class="cls-37" d="M260.4,44.88a10.81,10.81,0,0,1,3.19,8c0,5.39-6.37,13-12.21,13-5.14,0-9.31-5.29-9.31-11.81,0-5,2.48-9.22,5.91-11A11.14,11.14,0,0,1,260.4,44.88Z"/><path class="cls-38" d="M248.15,56.32a16.41,16.41,0,0,0-.4,1.61,1,1,0,0,0,.09.7,1.33,1.33,0,0,0,.63.43,1,1,0,0,1-.88-.23,1.25,1.25,0,0,1-.25-.95A2.87,2.87,0,0,1,248.15,56.32Z"/><path class="cls-39" d="M245.47,57.48c0,.52-.58.94-1.3.94s-1.31-.42-1.31-.94.59-.94,1.31-.94S245.47,57,245.47,57.48Z"/><path class="cls-39" d="M255.38,57.53c0,.57-.71,1-1.59,1s-1.58-.47-1.58-1,.71-1.05,1.58-1.05S255.38,57,255.38,57.53Z"/><ellipse class="cls-32" cx="252.01" cy="185.21" rx="23.36" ry="4.06"/><path class="cls-40" d="M268.82,177.55s1.35.28,1.15,2.31-.12,4.77-.12,4.77l-.57.22a13.16,13.16,0,0,0-.49-2.47c-.17,0-1.31,2.46-2.65,3s-4.73,1.65-5.69.67,1.3-2.06,2.51-2.78S268.82,177.55,268.82,177.55Z"/><path class="cls-37" d="M264,171s1.42,5.58.73,8-2.53,4.45-2.72,4.93,2.53.16,3.49-.68,3.52-5.17,3.37-5.75a39,39,0,0,1-.42-7.37Z"/><path class="cls-40" d="M246.46,178.14s1.3.46.83,2.45-.75,4.71-.75,4.71l-.6.14a12.69,12.69,0,0,0-.16-2.51c-.16-.05-1.56,2.3-3,2.69s-5,1-5.79-.14,1.56-1.87,2.85-2.42S246.46,178.14,246.46,178.14Z"/><path class="cls-37" d="M242.56,171s.65,5.72-.35,8-3.09,4.06-3.35,4.51,2.48.5,3.55-.2,4.18-4.65,4.1-5.25a40,40,0,0,1,.58-7.36Z"/><path class="cls-41" d="M241.32,115.43s-2.43,24.3-2.77,32.4c-.3,7.15,3,29.33,3,29.33l5.78-.5s.68-21.26,2.32-28.34l5-21.59s1.93,15.37,2.57,20.49C258.18,154.5,263,177,263,177l6.83-.29s-1.82-22.75-1.72-30.33c.11-8,1.84-32,1.84-32Z"/><path class="cls-42" d="M241.32,115.43s-2.43,24.3-2.77,32.4c-.3,7.15,3,29.33,3,29.33l5.78-.5s.68-21.26,2.32-28.34l5-21.59s-3.32-4-4.36-11.63Z"/><path class="cls-43" d="M264.4,53.48s-1.28,4-7.51.37a46.72,46.72,0,0,1-10.18-7.91s-2,5.23-5.23,7.33a28.89,28.89,0,0,1,.78-5.54c.67-2.11,2.56-6.48,9.12-6.75C266.35,40.38,264.4,53.48,264.4,53.48Z"/><path class="cls-43" d="M263.4,50.63a4.79,4.79,0,0,0,2.11-5.8c-1.33-3.9-6.5-6-9.18-2.53"/><path class="cls-43" d="M250.67,53.85c0,.46.25.84.55.84s.54-.38.54-.84-.24-.85-.54-.85S250.67,53.38,250.67,53.85Z"/><path class="cls-43" d="M245,54.16c0,.47.26.85.57.85s.57-.38.57-.85-.26-.84-.57-.84S245,53.7,245,54.16Z"/><path class="cls-44" d="M251.24,60.28s-2.67,1.26-4.8.19C246.4,61.6,249.15,63.79,251.24,60.28Z"/><path d="M259.25,56.78c-.71,2.18.08,4.35,1.77,4.84s3.64-.87,4.34-3.06-.08-4.35-1.77-4.85S260,54.59,259.25,56.78Z"/><path class="cls-45" d="M261.36,60.17a9.36,9.36,0,0,1-9.48,3.39"/><path d="M252,62.94a.63.63,0,1,0-.23,1.23.63.63,0,0,0,.73-.5A.63.63,0,0,0,252,62.94Z"/><path class="cls-45" d="M263.79,56.22s1.8-16.44-11.23-16.54c-3,0-8.33,1.08-9.86,6.3"/><path class="cls-46" d="M238.69,86.19h0l-63-34.87a21.66,21.66,0,0,0-21,0L91.58,86.19h0a8.93,8.93,0,0,0-4.66,7.85v87.77a8.94,8.94,0,0,0,8.94,8.94H234.43a8.94,8.94,0,0,0,8.94-8.94V94.05A8.94,8.94,0,0,0,238.69,86.19Z"/><path class="cls-47" d="M175.53,47.93c.72-1.61,5.38-3.59,5.92-5.74s-1.61-5.21.36-7.18,9-1.08,10.77-3.42.54-4.48,2.34-5.2,7.18,1.44,9.51-.54,2-4,3.77-4.13,4.31,1.62,7.18.18,6.28-1.61,4.31.9-4.31,4.67-4.13,7.54-4.49,1.61-5.92,3.41,0,5-1.26,6.46-6.64.72-7.36,2,2.15,7.18.72,9.51-7.72-1.79-9.16.72S189.35,58,189.35,58Z"/><path class="cls-48" d="M212.69,25.85s-10.41,1.44-32,25.67l2.52,2.16S196.17,33.39,212.69,25.85Z"/><path class="cls-49" d="M115.06,45.7H215.24a10.25,10.25,0,0,1,10.25,10.25V168.82a0,0,0,0,1,0,0H104.81a0,0,0,0,1,0,0V55.95A10.25,10.25,0,0,1,115.06,45.7Z"/><g class="cls-50"><rect class="cls-51" x="120.12" y="63.88" width="90.07" height="0.71"/><rect class="cls-51" x="120.12" y="73.84" width="90.07" height="0.71"/><rect class="cls-51" x="120.12" y="83.79" width="90.07" height="0.71"/><rect class="cls-51" x="120.12" y="93.74" width="90.07" height="0.71"/><rect class="cls-51" x="120.12" y="103.7" width="90.07" height="0.71"/><rect class="cls-51" x="120.12" y="113.65" width="90.07" height="0.71"/><rect class="cls-51" x="120.12" y="123.6" width="90.07" height="0.71"/><rect class="cls-51" x="120.12" y="133.56" width="90.07" height="0.71"/></g><path class="cls-52" d="M230.24,103.52l-65.85,65.85a.36.36,0,0,1-.52,0L98,103.52a15.72,15.72,0,0,0-11.1-4.59h0v82.89a8.94,8.94,0,0,0,8.94,8.94H234.43a8.94,8.94,0,0,0,8.94-8.94V98.93h-2A15.72,15.72,0,0,0,230.24,103.52Z"/><path class="cls-53" d="M187.42,146.35l-23,23a.36.36,0,0,1-.52,0L141.2,146.7l-54.28,32v3.15a8.94,8.94,0,0,0,8.94,8.94H234.43a8.94,8.94,0,0,0,8.94-8.94V179Z"/><path class="cls-54" d="M243.37,181.82v-2.65l-67.72-37.46a21.66,21.66,0,0,0-21,0L86.93,179.17v2.65a8.94,8.94,0,0,0,8.94,8.94H234.43A8.94,8.94,0,0,0,243.37,181.82Z"/><path class="cls-55" d="M209,180.17c0,1.66.26-1.06,5.38-1.06,3.89,0,.36,10.16-5.83,10.51a1.8,1.8,0,0,0-1.06,2.12c.27,1.68,11.22-2.21,11.22-11.3C218.69,174.34,209,175.58,209,180.17Z"/><path class="cls-55" d="M182.79,174.14s.71,23.63,15.59,23.63c13.46,0,15-23.63,15-23.63Z"/><path class="cls-56" d="M187.36,176.78a15.23,15.23,0,0,1-3.29-.67c.59,5.73,3.22,21.74,14.31,21.66a10.7,10.7,0,0,0,2.08-.21C190.58,195.78,188,182.53,187.36,176.78Z"/><path class="cls-56" d="M213.37,174.14c0,1.35-6.85,2.44-15.29,2.44s-15.29-1.09-15.29-2.44,6.84-2.43,15.29-2.43S213.37,172.8,213.37,174.14Z"/><ellipse class="cls-55" cx="198.08" cy="174.14" rx="13.65" ry="1.91"/><path class="cls-57" d="M187.5,175.35a79.11,79.11,0,0,0,21.15,0,80.23,80.23,0,0,0-21.15,0Z"/><path class="cls-58" d="M104.49,72.4c-14,1.1-27.62,15-30.26,17.89s-16,17-16.42,31.09c-.24,8.2,5.41,16.19,8.85,18.85l15.83-19.88s-2.55-2.54-8.14-4.11c0,0,1.39-7.13,10-16.12,8.08-8.48,15.85-11,15.85-11,1.83,5.5,4.5,7.93,4.5,7.93l19.09-16.77C120.92,77,112.67,71.76,104.49,72.4Z"/><path class="cls-34" d="M82.3,120.19l-2.82-2.12c-1.87-1.45-6.88,1.86-11.19,7.39s-6.31,11.2-4.45,12.65l2.82,2.12Z"/><path class="cls-34" d="M77.85,132.84c-4.31,5.53-9.32,8.84-11.19,7.39s.14-7.11,4.45-12.65,9.33-8.84,11.19-7.39S82.17,127.31,77.85,132.84Z"/><g class="cls-59"><path class="cls-60" d="M66.66,140.23a2,2,0,0,1-.78-1.57,6.1,6.1,0,0,1,.08-1.81,16.44,16.44,0,0,1,1.1-3.42,31.47,31.47,0,0,1,8.74-11.2,16.6,16.6,0,0,1,3-1.91,6.46,6.46,0,0,1,1.74-.51,2,2,0,0,1,1.71.38,2.06,2.06,0,0,0-1.68-.16,6,6,0,0,0-1.59.66,16.93,16.93,0,0,0-2.82,2,35.6,35.6,0,0,0-4.77,5.12,35,35,0,0,0-3.8,5.86,16.71,16.71,0,0,0-1.29,3.24,5.83,5.83,0,0,0-.25,1.7A2.07,2.07,0,0,0,66.66,140.23Z"/></g><path class="cls-34" d="M123.83,80.35l-2.39-2.6c-1.55-1.78-7.09.54-12.36,5.17s-8.29,9.83-6.73,11.6l2.38,2.61Z"/><path class="cls-34" d="M117.1,92c-5.27,4.63-10.81,7-12.37,5.18s1.45-7,6.73-11.6,10.81-7,12.37-5.18S122.37,87.32,117.1,92Z"/><g class="cls-59"><path class="cls-61" d="M104.73,97.13a2.06,2.06,0,0,1-.48-1.69,6.19,6.19,0,0,1,.41-1.76,16.43,16.43,0,0,1,1.73-3.16,31.25,31.25,0,0,1,10.67-9.38,17.22,17.22,0,0,1,3.35-1.3,6.41,6.41,0,0,1,1.8-.18,2.09,2.09,0,0,1,1.62.69,2.12,2.12,0,0,0-1.62-.47,6.13,6.13,0,0,0-1.69.35,16.15,16.15,0,0,0-3.15,1.48,35,35,0,0,0-5.64,4.13,36.11,36.11,0,0,0-4.83,5.06A16.43,16.43,0,0,0,105,93.84a5.88,5.88,0,0,0-.56,1.62A2.09,2.09,0,0,0,104.73,97.13Z"/></g><path class="cls-62" d="M59.84,114.27s9.42-26.13,35.79-38.5C95.63,75.77,74.56,85.43,59.84,114.27Z"/><path class="cls-34" d="M100,88.35s-7.52.88-18.49,10.85c-7.77,7.07-11.42,17-11.42,17a8.7,8.7,0,0,1,3.08-.11A50.21,50.21,0,0,1,100,88.35Z"/><path class="cls-63" d="M88.05,53.44a10.33,10.33,0,0,0,.38,1.48,2.47,2.47,0,0,0,.45.81.73.73,0,0,0,.52.26,1.24,1.24,0,0,0,.61-.16,1.7,1.7,0,0,0,.8-1A4.6,4.6,0,0,0,91,53a9.47,9.47,0,0,0-.43-2.23,14,14,0,0,0-1-2.48,9.12,9.12,0,0,0-1.77-2.4,6,6,0,0,0-2.16-1.31,5.51,5.51,0,0,0-2.47-.2,8.17,8.17,0,0,0-2.7.92,8.45,8.45,0,0,0-3,2.62,9.39,9.39,0,0,0-1.54,3.65,11.93,11.93,0,0,0,0,4.26,14.31,14.31,0,0,0,1.53,4.44,11.48,11.48,0,0,0,2.26,3.06A7.58,7.58,0,0,0,82.32,65a6.76,6.76,0,0,0,3,.29,9.29,9.29,0,0,0,3.18-1,17,17,0,0,0,1.85-1.12A15,15,0,0,0,91.75,62a8.88,8.88,0,0,0,1-1,4.73,4.73,0,0,0,.57-.81,2.48,2.48,0,0,1,.57-.59,1.06,1.06,0,0,1,.52-.2.84.84,0,0,1,.46.1,1.7,1.7,0,0,1,.39.27l.93,1a13.88,13.88,0,0,1-1.09,1.7,15.25,15.25,0,0,1-1.43,1.66,16.48,16.48,0,0,1-1.81,1.55,17.13,17.13,0,0,1-2.22,1.39,12.19,12.19,0,0,1-4.47,1.43A9.79,9.79,0,0,1,81,68.1a10.49,10.49,0,0,1-3.68-2.18,13.43,13.43,0,0,1-2.92-3.84A15.17,15.17,0,0,1,73,58.41a16.19,16.19,0,0,1-.45-3.77A15.14,15.14,0,0,1,73,51a14.74,14.74,0,0,1,1.32-3.39,13.35,13.35,0,0,1,2.15-2.88,12.08,12.08,0,0,1,2.94-2.18A10.26,10.26,0,0,1,83,41.37a9.1,9.1,0,0,1,6.93,2.12,10.65,10.65,0,0,1,2.58,3.24,12,12,0,0,1,1.26,3.64,10,10,0,0,1,0,3.48,7.86,7.86,0,0,1-1.14,3,6,6,0,0,1-2.26,2.07,3.48,3.48,0,0,1-.83.32,2.34,2.34,0,0,1-.87.07,2.7,2.7,0,0,1-.86-.24,2.9,2.9,0,0,1-.79-.61A6.41,6.41,0,0,1,86,60.73a5.28,5.28,0,0,1-1.69,1.4,3.32,3.32,0,0,1-1.47.43,3,3,0,0,1-1.33-.24,3.75,3.75,0,0,1-1.15-.82,5.9,5.9,0,0,1-.93-1.31,8.21,8.21,0,0,1-.72-1.91,9,9,0,0,1-.27-2.14,9.49,9.49,0,0,1,.27-2.22,7.86,7.86,0,0,1,.86-2.17,8.88,8.88,0,0,1,1.55-2,9.77,9.77,0,0,1,2.29-1.63c.4-.21.76-.39,1.09-.53a9.18,9.18,0,0,1,1-.34,7.6,7.6,0,0,1,.87-.19c.28,0,.57-.07.88-.09ZM84.32,51a5.8,5.8,0,0,0-.62.27,3,3,0,0,0-1.15,1.12,4.92,4.92,0,0,0-.65,1.69,6.15,6.15,0,0,0-.05,2,5.89,5.89,0,0,0,.62,2c.47.88,1,1.16,1.59.85a2.05,2.05,0,0,0,.5-.39,1.88,1.88,0,0,0,.36-.64,3,3,0,0,0,.15-.91,5.93,5.93,0,0,0-.1-1.26Z"/><circle class="cls-52" cx="130.45" cy="34.91" r="2.95"/><circle class="cls-52" cx="67.28" cy="177.88" r="1.47"/><path class="cls-64" d="M288.27,35.94a4.07,4.07,0,1,1-4.06-4.06A4.07,4.07,0,0,1,288.27,35.94Z"/><circle class="cls-65" cx="131.02" cy="189.85" r="19.2"/><path class="cls-66" d="M134,181.92a4.34,4.34,0,1,0-4.35-4.34A4.34,4.34,0,0,0,134,181.92Zm-1.64,20.37C130.83,200.9,138,189,137,185.12c-.69-2.82-12-1-12.17-.14,0,0,3.28-.41,3.86,1.11s-3.86,10.66-4.67,14.12,3,4.57,5.61,4.57c3,0,8-2.08,7.83-3.05S133.87,203.67,132.35,202.29Z"/><path class="cls-67" d="M240.08,37.63v-.41a5.61,5.61,0,0,0-5.6-5.61h-6.15a5.61,5.61,0,0,0-5.61,5.61v.41a5.61,5.61,0,0,0,5.61,5.61h6.37a6.14,6.14,0,0,0,5,2.84,5,5,0,0,1-2.5-3.55A5.6,5.6,0,0,0,240.08,37.63Z"/><path class="cls-55" d="M229,37.46a.94.94,0,1,1-.94-.94A.94.94,0,0,1,229,37.46Z"/><path class="cls-55" d="M232.41,37.46a.94.94,0,1,1-.94-.94A.94.94,0,0,1,232.41,37.46Z"/><path class="cls-55" d="M235.83,37.46a.94.94,0,1,1-.94-.94A.94.94,0,0,1,235.83,37.46Z"/></g></g></g></svg>