<svg xmlns="http://www.w3.org/2000/svg" width="120" height="102.75" viewBox="0 0 120 102.75"><g id="Layer_2" data-name="Layer 2"><g id="Capa_1" data-name="Capa 1"><path d="M40.7,2.47C35.21-1.61,27.82-.44,23.34,4.56,16.1,12.64,21.29,28.21,33,24.64a14.59,14.59,0,0,0,11.14-6.21C47.6,13.33,45.36,6,40.7,2.47Z"/><path d="M74.74,36.47c-.15-1.22-1.32-2.28-2.58-1.38-3.06,2.18-5.39,5.46-8.08,8.07a18.26,18.26,0,0,1-7.2,4.68c-3.57,1.09-6.08-3.83-7.63-6.2C46.69,37.76,40.41,28,36.66,35.29c-2.47,4.82-7.42,2-10-.54-1.66-1.62-3.53-3.27-6-2.94-3,.4-5,3.37-6.6,5.69C9.56,44,5.36,50.61.41,56.84a1.8,1.8,0,0,0-.17,2,1.37,1.37,0,0,0,.31,1.58c5.46,5.13,12.67-5,17.85-12.77-.43,6.83-.46,13.72-.8,20.54-.25,5.2-1,10.36-1.25,15.55-.36,6.82-.45,20.68,9.87,18.8a1.83,1.83,0,0,0,1.34-1.76c0-5.22.13-10.43.42-15.64a94.15,94.15,0,0,1,.95-9.61A36.13,36.13,0,0,1,29.68,72a14.21,14.21,0,0,1,.54-1.55,1.31,1.31,0,0,0,.05-.15l.07.2a33.79,33.79,0,0,1,2.14,12,14.3,14.3,0,0,0,0,4.84A78.63,78.63,0,0,0,33,100.86a1.87,1.87,0,0,0,1.79,1.36c2.8.11,7.14.3,8.79-2.62C45.65,96,45,90.92,44.81,87q-.68-19.71-1.19-39.4a59.64,59.64,0,0,0,5.23,4.61C51.36,54.37,53.63,55.93,57,55,63.69,53.17,73,44.44,74.81,37.63A2.09,2.09,0,0,0,74.74,36.47Z"/><path d="M118.12,17.88c-4.44,0-8.87-.27-13.29-.56a8.48,8.48,0,0,0,.51-3.32c.12-2,.1-4,.07-6,.29-2.31-3.66-2.44-3.71,0,0,1.79,0,3.59-.13,5.38-.06,1.26-.45,2.57-.11,3.75-8.93-.64-17.84-1.44-26.81-1.51a1.7,1.7,0,0,0,.14-.69c-.13-2.16-.29-4.3-.3-6.47.12-2.42-3.75-2.44-3.76,0,0,1.18,0,2.36,0,3.55a10.08,10.08,0,0,0,.36,3.42.66.66,0,0,0,.09.19c-1.28,0-2.55.05-3.83.1-3.72.16-8.91.14-10.89,3.9-2.34,4.44-.5,11-.07,15.69a1.64,1.64,0,0,0,3.28,0c.16-4.46-.88-9,0-13.38.72-3.55,11.16-2.49,13.87-2.49,14.2,0,28.22,1.94,42.37,2.26-1.59,13.15-.43,26.35-.63,39.57-11.62.74-23.24.33-34.86.9-3.09.15-19.94,2-18.29-3.6.7-2.38-3-3.39-3.7-1-1.84,6.22,3.88,8,9.24,8.56q-.43,4.38-.8,8.82a33.82,33.82,0,0,0-7.38,1,1.27,1.27,0,0,0,.33,2.48c2.27,0,4.52,0,6.78.13-.46,6.68-.7,13.4-.51,20,.07,2.48,3.93,2.49,3.86,0-.2-6.6.51-13.22.94-19.83,7.38.34,14.75.85,22.16.8,3.87,0,7.77-.1,11.63-.4l0,1c-.26,6.2-.73,12.34-1.46,18.48a1.7,1.7,0,0,0,2.14,1.63c3.92-1.09,2.86-14,3-16.83.07-1.54.12-3.07.17-4.6l3.73-.47a25.23,25.23,0,0,0,2.72-.09,1.38,1.38,0,0,0,1.53-.38l.19-.2a1.68,1.68,0,0,0,.26-2c-1.31-1.95-3.84-1.28-5.83-1l-2.5.27q0-2.32,0-4.65c0-1.32-.05-2.63-.16-3.94a2.82,2.82,0,0,0-.23-.72q4.48-.23,8.95-.55A2,2,0,0,0,119.13,63c.36-14.24-1.25-28.56.84-42.72A2,2,0,0,0,118.12,17.88ZM97,75.6q-9.87.29-19.72-.36c-2.06-.14-4.12-.28-6.18-.35a82.8,82.8,0,0,0,0-8.63c.78,0,1.5,0,2.14,0,10.64-.07,21.35-.16,32-.62a16.62,16.62,0,0,0-.18,3q-.08,3.25-.2,6.53C102.27,75.37,99.67,75.52,97,75.6Z"/><path d="M105.74,34.43c-.75,1.5-1.35,3.06-2.06,4.58A14.05,14.05,0,0,1,102,35.27c-.34-1.12-2.05-1.84-2.89-.76a14.11,14.11,0,0,0-2.61,5.65c-2.12-3-1.83-7.84-2.69-11.26-.35-1.35-2.54-1.82-3.17-.41-2.16,4.86-2.3,10.61-4.45,15.45-1-4.47-.72-9.19-2.26-13.58-.31-.9-1.62-1.5-2.34-.62-1.45,1.78-4,4.6-4.07,7A.82.82,0,0,0,79,37.3l0,0a42.83,42.83,0,0,0,2.81-3.46c.72,4.91.41,9.9,2.37,14.61.43,1,1.94,1.88,2.84.75,3-3.73,3.71-8.19,4.71-12.62.64,3.35,1.72,6.43,5,8.36a1.73,1.73,0,0,0,2.53-1,30,30,0,0,1,.85-4.11,13.66,13.66,0,0,0,2.63,3.52,1.76,1.76,0,0,0,2.73-.36,42.38,42.38,0,0,0,3.31-7.25C109.52,33.94,106.59,32.73,105.74,34.43Z"/></g></g></svg>