<svg xmlns="http://www.w3.org/2000/svg" width="75.07" height="77" viewBox="0 0 75.07 77"><g id="Layer_2" data-name="Layer 2"><g id="Capa_1" data-name="Capa 1"><path d="M54.7,29.28a3.91,3.91,0,0,0,2.72-1.11,1.13,1.13,0,0,0,0-1.6,1.12,1.12,0,0,0-1.59,0A1.69,1.69,0,0,1,54.7,27h-.33a1.68,1.68,0,0,1-1.16-.47,1.13,1.13,0,1,0-1.57,1.62,3.94,3.94,0,0,0,2.73,1.11Z"/><path d="M32,56.81a1.81,1.81,0,0,0,.9.24,1.77,1.77,0,0,0,1-.28l7-4.31a1.86,1.86,0,0,0,0-3.16l-7-4.31a1.85,1.85,0,0,0-2.82,1.57V55.2A1.83,1.83,0,0,0,32,56.81Zm1.3-9.52,5.84,3.59-5.84,3.59Z"/><path d="M45.85,62.32H35a3.48,3.48,0,0,0-6.58,0H27a1.13,1.13,0,0,0,0,2.26h1.43a3.48,3.48,0,0,0,6.58,0H45.85a1.13,1.13,0,0,0,0-2.26ZM31.72,64.67a1.22,1.22,0,1,1,1.22-1.22A1.22,1.22,0,0,1,31.72,64.67Z"/><path d="M75.07,54.62v-7.9a9.54,9.54,0,0,0-9.53-9.53H59.78v-4a9.07,9.07,0,0,0,4.29-7.71V24.6h1.81a4.59,4.59,0,0,0,3.37-7.7V13a11.31,11.31,0,0,0-4.13-8.75A1.13,1.13,0,0,0,63.69,6,9.07,9.07,0,0,1,67,13v2.55a4.56,4.56,0,0,0-1.11-.13H64a6.7,6.7,0,0,0-6.66-6.08H46.57A1.58,1.58,0,0,0,45,10.92v4.5h-1.8a4.58,4.58,0,0,0-1.12.13V4.62a2.36,2.36,0,0,1,3.61-2l.67.42a5.65,5.65,0,0,0,3,.87h8.54a9.13,9.13,0,0,1,1.4.11,1.13,1.13,0,0,0,.35-2.23,11.27,11.27,0,0,0-1.75-.13H49.37a3.45,3.45,0,0,1-1.82-.53L46.88.72a4.61,4.61,0,0,0-7.07,3.9V16.89a4.6,4.6,0,0,0,3.38,7.72H45v.88a9.1,9.1,0,0,0,4.29,7.71v1.57H32.89A17,17,0,0,0,16.8,12.84a17,17,0,0,0,0,34c.42,0,.83,0,1.23-.05V68.35a2.88,2.88,0,0,0,2.88,2.88H29.5v1.59a2.77,2.77,0,0,0,2.76,2.76h3.59a2.77,2.77,0,0,0,2.77-2.76V71.23h1.66v4.64A1.13,1.13,0,0,0,41.41,77H66.12a1.13,1.13,0,0,0,1.13-1.13V72A1.13,1.13,0,1,0,65,72v2.76H42.54V71.23h9.4a2.88,2.88,0,0,0,2.87-2.88V61.92H65v4.79a1.13,1.13,0,1,0,2.26,0V61.92h2a5.73,5.73,0,0,0,3-.84,5.8,5.8,0,0,0,2.8-5V54.62ZM68.21,20a2.34,2.34,0,0,1-2.33,2.34H64.07V17.67h1.81A2.34,2.34,0,0,1,68.21,20Zm-25,2.34a2.34,2.34,0,1,1,0-4.68H45v4.68Zm4.05,3.14v-2h0V16.54h0V11.6H57.38A4.45,4.45,0,0,1,61.82,16v9.45A6.83,6.83,0,0,1,55,32.31h-.92A6.84,6.84,0,0,1,47.24,25.49Zm4.3,8.72a9.15,9.15,0,0,0,2.53.36H55a9.28,9.28,0,0,0,2.54-.36v4.84a2.43,2.43,0,0,1-2.43,2.43h-.29V37.64a2.88,2.88,0,0,0-2.87-2.87h-.4Zm2.15,25.46H52.35A1.66,1.66,0,0,1,50.69,58V55.75h3.92v3.92ZM51.94,37a.61.61,0,0,1,.62.61v2.3a3.18,3.18,0,0,0-.62-.07H30.38A16.74,16.74,0,0,0,32,37ZM2.26,29.86A14.67,14.67,0,0,1,16.8,15.1a14.76,14.76,0,0,1,0,29.52A14.67,14.67,0,0,1,2.26,29.86Zm34.1,43a.51.51,0,0,1-.51.51H32.26a.51.51,0,0,1-.51-.51V71.23h4.61Zm16.2-4.47a.62.62,0,0,1-.62.62h-31a.62.62,0,0,1-.62-.62V46.51a16.71,16.71,0,0,0,8.14-4.38H51.94a.62.62,0,0,1,.62.62V53.49H46.47a1.13,1.13,0,1,0,0,2.26h2V58a3.92,3.92,0,0,0,3.92,3.91h.21Zm19.9-10.7a3.55,3.55,0,0,1-3.2,2H56.86V55.75H68.12a1.13,1.13,0,1,0,0-2.26h-.87V46.33a1.13,1.13,0,0,0-2.26,0v7.16H54.81V43.73h.29a4.7,4.7,0,0,0,4.67-4.29h5.77a7.29,7.29,0,0,1,7.27,7.28v9.39a3.41,3.41,0,0,1-.35,1.54Z"/><path d="M28.37,30a1.5,1.5,0,0,0,0-2.87l-11-3.33a1.91,1.91,0,0,0-1.11,0l-11,3.33a1.5,1.5,0,0,0-.8,2.28v3.73a1.13,1.13,0,0,0,2.25,0v-2.7L8.4,31v5.2A1.94,1.94,0,0,0,9.85,38l6.27,1.63a2.65,2.65,0,0,0,.68.09,2.59,2.59,0,0,0,.68-.09L23.76,38a1.93,1.93,0,0,0,1.44-1.87V31ZM16.8,26l8.51,2.57L16.8,31.14,8.29,28.57ZM23,35.91l-6,1.57a.45.45,0,0,1-.23,0l-6-1.57V31.64l5.59,1.69a1.75,1.75,0,0,0,.55.08,1.77,1.77,0,0,0,.56-.08L23,31.64Z"/></g></g></svg>